<?xml version="1.0" standalone="no"?>
<!DOCTYPE svg PUBLIC "-//W3C//DTD SVG 20010904//EN"
 "http://www.w3.org/TR/2001/REC-SVG-20010904/DTD/svg10.dtd">
<svg version="1.0" xmlns="http://www.w3.org/2000/svg"
 width="800.000000pt" height="800.000000pt" viewBox="0 0 800.000000 800.000000"
 preserveAspectRatio="xMidYMid meet">
<metadata>
Created by potrace 1.11, written by Peter Selinger 2001-2013
</metadata>
<g transform="translate(0.000000,800.000000) scale(0.100000,-0.100000)"
fill="#000000" stroke="none">
<path d="M3730 7120 c-457 -44 -895 -181 -1278 -401 -59 -34 -109 -64 -112
-68 -3 -3 -17 -12 -32 -20 -15 -8 -37 -22 -47 -33 -11 -10 -23 -18 -27 -18
-11 0 -223 -162 -285 -217 -173 -156 -344 -337 -333 -355 4 -6 3 -8 -4 -4 -11
7 -99 -101 -194 -239 -229 -332 -403 -742 -483 -1141 -43 -211 -58 -371 -58
-619 -1 -306 24 -506 98 -795 37 -143 135 -424 154 -440 3 -3 7 -12 9 -20 4
-20 102 -220 142 -290 237 -415 588 -791 985 -1054 490 -326 1010 -497 1592
-525 187 -8 245 -7 433 10 598 54 1180 289 1660 670 136 108 384 355 489 489
530 670 762 1482 665 2325 -96 824 -525 1579 -1195 2101 -57 45 -115 87 -128
95 -14 8 -33 21 -43 29 -43 35 -253 156 -373 214 -305 148 -622 244 -965 291
-137 19 -535 27 -670 15z m590 -535 c270 -34 532 -110 778 -226 57 -27 105
-49 107 -49 8 0 164 -96 249 -152 101 -68 260 -193 303 -238 15 -16 32 -26 37
-23 6 4 8 3 4 -2 -4 -4 43 -61 106 -126 62 -65 153 -174 202 -243 98 -139 106
-153 78 -141 -11 4 -39 15 -64 23 -25 8 -72 28 -105 43 -33 15 -78 31 -100 34
-53 9 -146 60 -240 132 -135 102 -126 98 -203 78 -148 -39 -450 -185 -605
-291 -43 -30 -89 -54 -102 -54 -13 0 -117 -13 -232 -30 -148 -20 -238 -39
-304 -61 -55 -19 -123 -34 -164 -37 -82 -5 -108 4 -345 123 -154 76 -231 117
-670 349 -162 86 -286 146 -303 146 -46 0 -144 -38 -292 -113 -167 -84 -368
-196 -376 -209 -3 -5 -10 -10 -15 -10 -8 1 -49 -22 -129 -71 -11 -6 -33 -21
-50 -32 -57 -38 -118 -68 -110 -54 74 122 198 287 307 408 37 41 64 79 61 85
-3 6 -2 8 2 3 11 -10 56 33 48 46 -3 6 -1 7 6 3 7 -5 33 12 66 42 79 72 197
166 284 225 86 59 83 57 209 124 50 27 89 53 85 58 -5 4 -3 5 4 1 6 -3 53 14
103 38 50 25 93 45 96 45 2 0 53 15 112 35 200 66 353 100 587 129 88 11 462
6 575 -8z m1365 -196 c4 -6 14 -8 22 -5 8 3 12 2 9 -3 -3 -4 14 -22 38 -39
124 -89 296 -248 431 -397 69 -77 235 -289 235 -300 0 -4 19 -34 42 -68 23
-34 63 -99 89 -144 25 -46 50 -79 54 -75 5 4 5 2 1 -5 -6 -11 27 -90 43 -103
3 -3 7 -13 9 -23 2 -10 19 -53 38 -95 117 -256 224 -732 224 -998 0 -81 -3
-84 -74 -84 l-43 0 -6 129 c-13 242 -73 529 -164 781 -57 157 -162 382 -176
373 -6 -3 -7 -1 -4 5 11 16 -124 233 -234 377 -123 161 -352 388 -516 511
l-121 91 41 42 c44 44 52 47 62 30z m-3505 -244 c0 -2 -71 -74 -158 -161 -151
-152 -281 -308 -274 -329 2 -5 0 -7 -4 -2 -10 10 -45 -44 -37 -57 3 -6 3 -8
-2 -4 -10 10 -30 -17 -102 -137 -240 -399 -376 -835 -401 -1287 l-7 -123 -59
-3 -59 -3 6 143 c14 326 103 696 239 993 28 61 51 118 51 127 1 9 3 15 6 13 2
-3 27 37 54 88 149 278 391 583 621 782 l49 42 39 -40 c21 -22 38 -41 38 -42z
m651 -569 c52 -30 146 -81 209 -115 298 -157 386 -203 395 -204 6 -1 12 -5 15
-8 14 -17 253 -128 263 -122 7 3 9 3 5 -2 -4 -4 18 -20 50 -35 191 -90 285
-96 483 -30 68 24 203 58 299 77 96 19 198 39 225 45 66 13 180 4 340 -27 134
-26 339 -43 371 -31 14 5 -14 23 -111 71 -145 72 -209 95 -269 95 -98 0 -94
11 20 56 60 24 118 48 129 53 57 26 220 81 242 81 6 0 32 -16 57 -35 25 -19
46 -33 46 -30 0 2 11 -6 24 -18 46 -43 165 -97 253 -117 49 -10 102 -25 118
-34 17 -9 39 -16 51 -16 11 0 52 -11 90 -24 38 -13 100 -26 137 -30 38 -4 66
-10 64 -13 -3 -2 20 -61 50 -129 48 -112 109 -281 127 -356 6 -26 4 -27 -21
-23 -62 12 -184 21 -218 17 -39 -5 -537 -247 -544 -264 -2 -5 -26 15 -55 45
-61 65 -112 101 -127 91 -7 -4 -9 -3 -6 3 3 5 -8 18 -26 28 -74 44 -205 147
-244 193 -61 71 -113 98 -249 127 -66 14 -159 36 -209 50 l-89 24 -286 -59
c-721 -149 -668 -142 -1010 -151 -168 -4 -332 -10 -365 -12 -67 -5 -153 -43
-268 -121 -38 -25 -70 -46 -73 -46 -2 0 -28 -16 -59 -35 l-55 -36 -66 55 c-98
81 -101 81 -230 31 -158 -61 -331 -138 -442 -196 -174 -92 -447 -242 -461
-253 -11 -9 -12 0 -7 54 34 328 105 609 215 852 23 49 35 66 46 62 8 -4 15 -1
15 5 0 6 3 10 8 8 14 -4 92 36 86 44 -3 5 1 6 9 3 8 -3 22 2 31 11 9 9 16 13
16 9 0 -3 6 -2 13 4 21 17 508 265 667 340 77 35 210 91 221 92 3 0 48 -24
100 -54z m2064 -869 c72 -14 148 -29 169 -32 30 -5 55 -21 105 -70 70 -67 155
-125 286 -195 44 -23 88 -50 98 -58 17 -15 16 -18 -18 -52 -42 -43 -46 -70
-10 -70 31 0 387 118 605 200 114 44 171 60 206 60 57 0 215 -17 221 -24 3 -3
12 -49 21 -103 16 -101 24 -554 10 -568 -4 -4 -72 3 -152 14 -79 12 -220 28
-313 35 -109 9 -181 19 -205 30 -49 21 -96 20 -150 -3 -24 -10 -79 -21 -123
-24 -79 -5 -81 -5 -170 39 -108 53 -179 68 -300 61 -94 -5 -285 -58 -285 -80
0 -6 -3 -7 -7 -4 -12 13 -178 -94 -231 -150 -20 -20 -29 -23 -55 -16 -18 4
-67 8 -110 7 -69 -1 -86 -5 -153 -39 -79 -40 -169 -127 -159 -153 3 -7 0 -10
-5 -7 -14 9 -55 -83 -76 -170 -10 -38 -29 -85 -43 -102 l-26 -33 -33 70 c-20
43 -37 68 -44 64 -7 -4 -8 -2 -4 4 8 14 -72 124 -85 116 -5 -3 -7 1 -4 8 10
25 -87 171 -164 248 -59 59 -97 87 -161 119 -101 50 -223 75 -315 65 -110 -11
-246 -68 -345 -142 -32 -25 -45 -27 -155 -33 -112 -5 -123 -4 -161 17 -116 64
-306 100 -448 83 -78 -9 -198 -43 -218 -62 -43 -40 -261 -18 -358 36 -63 35
-109 71 -119 95 -6 13 -11 63 -11 111 l0 88 63 12 c227 44 589 172 839 297 73
37 104 42 132 21 17 -12 13 -17 -48 -61 -71 -51 -95 -81 -77 -99 15 -15 72 4
209 72 136 69 292 142 377 179 l60 26 388 3 388 2 267 51 c147 28 304 60 350
70 46 11 92 20 103 20 10 0 19 3 19 8 0 4 17 8 38 10 20 2 71 11 112 22 88 22
104 21 275 -13z m410 -856 c-11 -4 -55 -11 -97 -14 -43 -4 -119 -16 -169 -27
-51 -11 -94 -18 -97 -15 -2 2 7 7 22 11 14 3 26 10 26 16 0 5 3 7 8 5 4 -3 39
3 77 14 69 18 273 27 230 10z m-1975 -65 c30 -8 58 -12 62 -10 5 3 8 1 8 -3 0
-5 19 -18 43 -30 47 -23 147 -94 147 -105 0 -4 -19 0 -42 8 -24 8 -54 17 -68
20 -203 37 -265 45 -379 51 l-134 6 39 20 c100 53 224 69 324 43z m-928 -57
c37 -12 67 -23 65 -24 -1 0 -108 2 -237 5 -210 4 -232 7 -210 19 44 25 82 30
200 27 88 -3 131 -9 182 -27z m3748 -67 c87 -42 205 -71 318 -79 104 -7 104
-6 81 -101 -18 -72 -22 -74 -156 -79 -103 -4 -130 -1 -217 21 -135 35 -248 94
-370 195 l-101 83 190 -4 c187 -5 191 -6 255 -36z m-4675 5 c4 5 5 3 1 -4 -4
-8 14 -19 55 -34 l60 -22 -33 -14 c-18 -8 -54 -17 -79 -20 l-46 -5 -6 38 c-4
22 -7 49 -7 62 0 21 1 22 23 7 13 -8 27 -12 32 -8z m4193 -27 c31 -28 74 -63
97 -78 80 -54 127 -108 195 -223 107 -181 215 -267 322 -257 27 3 54 10 60 16
8 8 0 8 -26 0 -45 -14 -124 8 -171 48 l-30 25 28 -11 c39 -14 60 -13 83 5 17
13 16 13 -12 3 -47 -17 -112 11 -158 67 -20 24 -36 46 -36 49 0 3 -22 43 -49
90 l-49 85 47 -23 c174 -88 381 -114 524 -66 35 12 35 8 -3 -119 -59 -198
-164 -430 -276 -612 -64 -103 -200 -287 -251 -341 -23 -23 -33 -41 -28 -50 5
-7 5 -10 0 -6 -4 4 -54 -36 -109 -90 -352 -338 -745 -559 -1201 -673 -121 -31
-351 -69 -416 -69 -42 0 -55 15 -121 145 l-46 90 10 74 c5 41 19 113 32 160
54 196 69 305 68 506 0 171 -13 329 -38 463 -15 81 -14 84 8 125 32 59 144
206 211 276 65 68 145 127 272 199 151 85 136 86 229 -7 99 -97 175 -150 273
-191 186 -78 381 -78 546 -2 61 29 117 79 117 107 0 26 -12 45 -29 44 -10 0
-11 -2 -3 -6 19 -7 14 -51 -8 -73 -10 -10 -38 -29 -60 -40 -55 -28 -242 -38
-350 -20 l-75 13 57 13 c32 8 75 22 97 33 45 23 101 76 101 96 0 7 3 20 6 29
9 23 -40 66 -73 66 -25 -1 -24 -2 12 -15 22 -8 41 -15 43 -15 1 0 2 -15 2 -34
0 -27 -8 -41 -41 -71 -62 -55 -121 -78 -209 -78 -97 0 -161 28 -279 123 -24
19 -48 34 -53 32 -5 -1 -7 1 -4 6 3 5 -13 26 -34 47 -22 22 -40 42 -40 46 0
12 151 51 176 45 13 -4 47 -20 74 -37 66 -41 100 -49 152 -38 71 16 67 29 -8
22 -66 -5 -71 -4 -132 32 -35 20 -62 38 -60 40 2 2 53 13 113 26 137 27 297
46 393 48 l74 1 56 -50z m881 34 c18 -4 31 -13 31 -22 0 -13 -15 -14 -107 -9
-60 3 -133 13 -163 20 l-55 15 131 1 c72 1 146 -2 163 -5z m-2069 -58 c0 -2
-28 -22 -62 -46 -35 -24 -75 -55 -90 -68 -41 -38 -36 -4 5 35 31 31 147 93
147 79z m-2672 -42 c18 -5 -46 -104 -111 -173 -52 -53 -133 -112 -173 -125
-20 -6 -23 1 -48 98 -32 130 -32 136 -2 136 27 0 193 57 201 69 4 7 107 4 133
-5z m620 -20 l204 -6 -29 -30 c-77 -81 -250 -199 -362 -247 -60 -26 -150 -38
-175 -24 -14 8 -14 11 0 31 19 27 60 31 49 5 -5 -14 -3 -15 6 -6 16 16 4 43
-18 43 -22 0 -73 -45 -73 -64 0 -39 84 -60 179 -45 118 18 233 79 365 192 l58
51 -24 -40 c-14 -21 -50 -94 -80 -161 -66 -141 -111 -215 -176 -286 -37 -41
-41 -47 -16 -29 65 45 130 142 214 322 68 144 103 206 143 248 l31 32 137 0
c75 0 151 -3 168 -6 l32 -7 -40 -33 c-21 -19 -62 -65 -90 -103 -49 -66 -105
-111 -137 -111 -8 0 -14 -5 -14 -11 0 -17 61 0 97 27 18 14 64 62 102 108 94
113 129 130 237 116 121 -15 133 -19 224 -67 226 -121 316 -221 421 -466 25
-59 27 -74 19 -110 -5 -23 -12 -82 -15 -132 -4 -49 -15 -124 -25 -165 -62
-251 -51 -552 30 -810 11 -36 20 -74 20 -85 0 -22 -112 -259 -127 -268 -12 -7
-174 15 -318 44 -162 32 -412 121 -590 209 -220 110 -360 200 -520 337 -40 34
-76 60 -79 57 -3 -2 -4 -2 -2 1 5 8 -175 180 -186 177 -5 -1 -6 3 -3 9 4 6 -8
27 -27 47 -55 57 -190 238 -248 332 -110 176 -301 608 -272 618 4 1 37 19 71
40 79 46 153 110 144 124 -3 6 -1 8 4 5 14 -8 86 100 77 115 -4 7 -3 8 4 4 6
-3 16 2 21 13 12 21 10 21 589 5z m1499 -1441 c-2 -16 -4 -3 -4 27 0 30 2 43
4 28 2 -16 2 -40 0 -55z m-1657 -314 c54 -42 94 -68 101 -63 7 4 9 3 5 -4 -16
-27 376 -250 589 -335 199 -78 432 -140 660 -174 169 -25 581 -25 750 0 500
74 952 265 1348 570 l78 60 33 -39 c18 -21 34 -43 35 -47 3 -15 -130 -118
-274 -212 -152 -100 -411 -232 -570 -291 -199 -74 -389 -122 -625 -159 -146
-22 -483 -31 -649 -16 -258 23 -565 93 -775 176 -49 19 -93 35 -98 35 -17 0
-275 133 -383 198 -155 93 -395 269 -395 289 0 9 64 81 73 82 4 1 47 -31 97
-70z m1764 -384 c3 -8 1 -15 -4 -15 -6 0 -10 7 -10 15 0 8 2 15 4 15 2 0 6 -7
10 -15z"/>
<path d="M6208 3223 c6 -2 18 -2 25 0 6 3 1 5 -13 5 -14 0 -19 -2 -12 -5z"/>
</g>
</svg>
