<?xml version="1.0" standalone="no"?>
<!DOCTYPE svg PUBLIC "-//W3C//DTD SVG 20010904//EN"
 "http://www.w3.org/TR/2001/REC-SVG-20010904/DTD/svg10.dtd">
<svg version="1.0" xmlns="http://www.w3.org/2000/svg"
 width="800.000000pt" height="800.000000pt" viewBox="0 0 800.000000 800.000000"
 preserveAspectRatio="xMidYMid meet">
<metadata>
Created by potrace 1.11, written by Peter Selinger 2001-2013
</metadata>
<g transform="translate(0.000000,800.000000) scale(0.100000,-0.100000)"
fill="#000000" stroke="none">
<path d="M1853 7989 c-848 -66 -1571 -672 -1783 -1493 -69 -270 -65 -105 -65
-2496 0 -2391 -4 -2226 65 -2496 180 -697 737 -1254 1434 -1434 270 -69 105
-65 2496 -65 2391 0 2226 -4 2496 65 697 180 1254 737 1434 1434 69 270 65
105 65 2496 0 2391 4 2226 -65 2496 -181 702 -748 1264 -1450 1438 -256 64
-88 59 -2410 61 -1163 2 -2161 -1 -2217 -6z m2560 -422 c-3 -5 19 -7 50 -5 30
1 53 -1 50 -5 -3 -5 19 -7 50 -5 30 1 53 0 50 -4 -2 -5 10 -8 26 -8 17 0 31
-4 31 -8 0 -10 159 -34 173 -25 6 4 7 1 2 -7 -6 -9 1 -12 28 -8 20 2 33 0 30
-5 -3 -6 7 -8 25 -5 20 3 28 0 25 -8 -3 -8 4 -10 21 -7 17 4 26 1 26 -7 0 -7
8 -10 20 -7 12 3 18 1 14 -5 -5 -7 4 -9 24 -6 17 2 29 1 26 -3 -6 -10 53 -22
67 -13 7 4 9 3 6 -3 -4 -6 3 -14 16 -18 12 -4 24 -8 27 -10 3 -1 13 -5 23 -9
9 -5 24 -5 33 -2 10 4 13 2 8 -6 -5 -7 0 -9 14 -6 14 4 20 2 16 -4 -5 -7 2 -9
19 -6 17 3 24 1 20 -5 -4 -6 0 -8 10 -4 11 4 14 2 11 -8 -4 -10 0 -12 15 -8
12 3 21 1 21 -4 0 -13 68 -36 81 -27 7 4 9 3 6 -3 -8 -12 38 -27 53 -18 6 4 7
-2 3 -12 -3 -10 -3 -15 2 -11 4 4 14 0 23 -8 8 -9 23 -13 34 -11 11 3 16 1 11
-6 -4 -7 0 -8 11 -4 11 5 15 3 10 -5 -5 -7 1 -9 20 -6 15 3 24 3 22 0 -10 -10
39 -43 56 -39 11 3 15 1 11 -6 -4 -6 0 -8 10 -4 10 4 16 2 14 -6 -1 -7 8 -12
19 -11 16 0 20 -4 16 -15 -3 -9 -2 -13 3 -9 4 4 14 0 23 -8 8 -9 23 -13 33
-11 11 3 22 0 26 -5 4 -7 1 -8 -8 -4 -8 4 -5 0 5 -8 11 -9 24 -16 28 -16 5 0
19 -9 31 -21 12 -11 30 -18 39 -15 10 2 21 -1 25 -6 4 -7 1 -8 -7 -3 -9 6 -11
4 -6 -4 5 -7 14 -10 22 -7 9 3 11 0 7 -11 -4 -10 -2 -14 4 -10 6 4 16 0 23 -9
7 -8 19 -13 26 -10 7 3 16 0 20 -6 5 -7 2 -8 -6 -3 -9 6 -11 4 -5 -4 4 -7 15
-11 25 -8 12 3 17 0 14 -8 -6 -15 43 -48 61 -42 18 7 35 -12 28 -32 -4 -9 -3
-13 2 -9 4 4 14 0 22 -8 8 -8 19 -11 25 -8 7 5 8 2 3 -6 -6 -10 -4 -12 9 -7 9
4 15 3 12 -2 -7 -11 27 -42 51 -45 10 -2 18 -9 18 -17 0 -8 10 -14 21 -13 13
0 21 -6 20 -15 -1 -9 5 -15 12 -13 8 1 11 -2 8 -7 -8 -13 21 -34 39 -28 8 4
17 1 21 -5 4 -7 3 -8 -4 -4 -16 10 -14 -5 3 -28 8 -10 21 -16 29 -13 16 6 40
-16 29 -26 -11 -11 20 -39 38 -34 10 3 23 -1 30 -9 6 -8 8 -14 5 -14 -4 0 -2
-9 4 -21 6 -11 17 -18 23 -16 17 6 47 -22 41 -38 -3 -7 4 -18 15 -25 12 -6 21
-8 21 -4 0 3 7 1 15 -6 8 -7 13 -16 10 -20 -3 -5 1 -15 9 -23 8 -8 12 -18 8
-22 -4 -5 1 -5 10 -2 17 6 43 -15 31 -26 -10 -10 28 -47 46 -45 10 2 15 -5 16
-22 0 -17 5 -24 15 -22 8 2 12 0 8 -4 -4 -4 -3 -13 3 -21 14 -16 33 -18 23 -1
-4 7 -3 8 4 4 6 -4 9 -13 6 -21 -3 -8 6 -26 20 -40 14 -14 26 -30 26 -34 0 -4
10 -16 22 -27 22 -19 23 -19 8 1 -14 18 -14 19 2 7 9 -8 15 -19 12 -26 -3 -7
10 -28 27 -47 18 -19 26 -25 18 -14 -13 18 -12 19 3 7 9 -8 14 -20 11 -28 -6
-15 30 -57 40 -48 3 3 8 0 13 -7 4 -8 3 -10 -4 -5 -21 12 -13 -10 12 -37 13
-14 22 -27 21 -29 -2 -2 5 -14 17 -28 11 -14 16 -19 12 -11 -4 9 -3 12 4 7 6
-4 8 -14 5 -23 -4 -11 -3 -14 5 -9 8 4 10 2 6 -7 -3 -8 1 -21 8 -28 7 -8 19
-26 27 -41 8 -15 18 -25 22 -22 5 3 6 -3 2 -12 -4 -12 -3 -15 5 -10 8 5 10 2
6 -9 -7 -18 29 -58 42 -47 4 4 4 1 0 -6 -8 -14 2 -54 12 -48 4 2 8 -8 9 -22 0
-15 6 -28 12 -30 6 -2 8 -9 4 -15 -4 -6 0 -8 10 -4 12 4 14 2 10 -10 -5 -12
-3 -14 7 -8 9 5 11 4 6 -4 -10 -16 3 -53 16 -45 7 4 8 2 4 -5 -4 -6 -2 -18 4
-26 7 -8 9 -15 6 -15 -4 0 -1 -6 6 -14 7 -8 17 -11 22 -8 5 3 6 0 2 -6 -8 -13
3 -64 13 -58 3 2 7 -9 8 -25 2 -29 25 -63 35 -53 3 3 3 -7 0 -22 -3 -19 -1
-25 6 -20 8 5 10 1 5 -10 -4 -11 -2 -15 4 -11 6 4 8 -3 5 -20 -3 -14 -1 -23 4
-20 5 3 10 -9 10 -26 1 -17 6 -33 13 -35 6 -2 11 -10 11 -18 0 -9 4 -13 9 -10
4 3 6 -6 3 -21 -3 -16 -1 -24 5 -20 6 4 8 -4 5 -20 -3 -16 -1 -24 5 -20 6 4 8
-4 5 -20 -3 -17 -1 -24 6 -19 6 4 8 -2 5 -14 -3 -12 0 -20 7 -20 8 0 11 -9 7
-26 -3 -17 -1 -24 7 -21 8 3 11 -5 8 -25 -4 -23 -2 -29 8 -23 8 5 11 4 6 -3
-10 -16 5 -93 17 -85 6 3 7 1 3 -5 -11 -18 5 -114 18 -109 8 3 10 -7 8 -31 -3
-19 -1 -32 5 -29 5 3 7 -10 5 -30 -3 -20 -1 -33 4 -30 5 3 7 -15 5 -40 -2 -25
1 -43 5 -40 5 3 10 -41 12 -96 2 -56 8 -104 13 -108 6 -4 9 -45 7 -103 -2 -61
1 -95 7 -92 6 2 10 -46 10 -134 0 -88 -4 -136 -10 -134 -6 3 -9 -32 -7 -96 2
-71 0 -100 -8 -100 -8 0 -11 -20 -8 -64 1 -35 -1 -62 -6 -59 -4 3 -7 -15 -5
-40 2 -25 1 -44 -2 -42 -3 2 -11 -43 -18 -100 -7 -57 -17 -105 -23 -107 -5 -2
-10 -29 -11 -60 -1 -31 -6 -53 -11 -51 -5 3 -7 -8 -4 -25 2 -17 1 -29 -3 -27
-9 6 -22 -62 -14 -75 3 -5 -1 -7 -9 -4 -11 4 -13 0 -9 -16 3 -13 0 -25 -6 -30
-7 -4 -14 -25 -14 -48 -1 -22 -5 -38 -9 -36 -10 6 -21 -54 -12 -67 4 -8 3 -9
-4 -5 -8 5 -12 0 -12 -13 0 -10 -5 -21 -12 -23 -6 -2 -12 -20 -12 -40 -1 -20
-5 -33 -10 -30 -5 3 -6 -2 -3 -12 5 -11 3 -15 -5 -10 -7 5 -9 -1 -6 -19 3 -17
1 -24 -5 -20 -6 4 -8 0 -4 -10 4 -11 2 -14 -9 -10 -10 4 -12 0 -8 -11 3 -8 -2
-23 -11 -32 -9 -9 -14 -23 -11 -31 4 -9 2 -11 -6 -7 -7 5 -9 -1 -6 -19 3 -17
1 -24 -5 -20 -6 4 -8 0 -4 -11 4 -9 3 -15 -2 -12 -9 6 -26 -22 -22 -37 1 -4
-6 -15 -15 -24 -8 -9 -13 -24 -11 -35 3 -11 1 -16 -6 -11 -7 4 -8 0 -4 -11 4
-9 3 -14 -2 -11 -5 3 -13 -5 -17 -17 -3 -12 -15 -31 -26 -42 -11 -13 -18 -30
-15 -44 2 -12 0 -25 -6 -29 -6 -4 -7 -1 -3 8 4 8 -1 3 -12 -11 -11 -13 -18
-28 -16 -32 3 -4 0 -8 -6 -8 -7 0 -9 -7 -6 -16 3 -8 2 -13 -3 -10 -11 7 -23
-22 -14 -36 4 -7 1 -8 -7 -3 -10 6 -12 4 -7 -8 4 -11 2 -14 -8 -10 -15 5 -40
-41 -30 -57 3 -5 0 -12 -6 -16 -8 -5 -10 -2 -4 7 4 8 -4 1 -18 -16 -14 -16
-23 -33 -21 -36 2 -4 -3 -10 -12 -13 -10 -4 -14 -14 -11 -26 3 -11 0 -23 -5
-27 -7 -4 -8 -1 -3 7 6 9 4 11 -4 6 -7 -5 -10 -14 -7 -22 3 -8 0 -11 -9 -7
-14 5 -24 -9 -29 -41 -1 -8 -6 -19 -11 -23 -4 -4 -5 -1 -1 7 4 8 -3 2 -16 -15
-13 -16 -22 -31 -20 -33 2 -2 -9 -13 -23 -24 -17 -13 -25 -27 -22 -39 3 -11 0
-16 -8 -13 -16 6 -39 -22 -32 -40 3 -8 -4 -22 -16 -33 l-22 -18 20 24 20 25
-26 -20 c-15 -10 -25 -22 -23 -26 2 -3 -1 -8 -6 -10 -6 -2 -12 -10 -13 -18 -4
-23 -17 -41 -27 -35 -12 8 -41 -25 -34 -37 5 -7 2 -8 -6 -3 -10 6 -12 4 -7 -9
4 -11 3 -15 -4 -10 -9 5 -43 -30 -44 -46 -1 -12 -17 -30 -24 -25 -5 2 -19 -7
-31 -20 -13 -14 -20 -25 -16 -25 5 0 3 -7 -4 -15 -7 -8 -16 -13 -20 -10 -4 2
-15 -4 -25 -15 -10 -11 -15 -20 -10 -20 4 0 2 -7 -5 -15 -7 -8 -16 -13 -20
-10 -4 2 -18 -7 -30 -20 -13 -14 -20 -25 -16 -25 5 0 3 -6 -3 -14 -7 -8 -20
-12 -31 -9 -12 3 -22 -2 -29 -16 -7 -12 -9 -21 -5 -21 3 0 1 -7 -6 -15 -7 -8
-15 -13 -19 -11 -14 8 -53 -15 -48 -28 6 -16 -16 -40 -26 -30 -8 9 -57 -23
-57 -37 0 -6 6 -7 13 -3 6 4 8 3 4 -2 -4 -4 -18 -9 -30 -9 -13 0 -21 -6 -19
-13 1 -8 -2 -11 -7 -8 -5 4 -13 0 -18 -7 -4 -7 -16 -17 -26 -20 -10 -4 -15
-11 -12 -17 3 -5 0 -7 -8 -4 -8 3 -18 0 -23 -7 -5 -8 -3 -10 6 -4 9 5 11 4 6
-4 -4 -6 -11 -9 -16 -6 -5 3 -11 1 -15 -5 -4 -6 -11 -8 -16 -5 -8 6 -13 -8
-10 -27 0 -4 -7 -4 -16 -1 -11 4 -14 3 -9 -5 4 -8 2 -10 -8 -6 -8 3 -24 -4
-35 -15 -12 -12 -24 -21 -28 -21 -5 0 -19 -10 -33 -21 -14 -11 -19 -17 -11
-13 9 4 12 3 7 -4 -4 -6 -13 -9 -21 -6 -16 7 -55 -12 -55 -27 0 -6 5 -7 12 -3
7 4 8 3 4 -4 -4 -6 -14 -8 -23 -5 -10 4 -14 2 -10 -4 5 -7 0 -9 -12 -6 -12 3
-28 -4 -41 -17 -12 -12 -28 -19 -35 -16 -7 2 -16 -2 -19 -10 -4 -10 -2 -12 6
-8 7 4 8 3 4 -4 -4 -6 -14 -8 -23 -5 -10 4 -14 2 -10 -4 5 -7 -1 -9 -15 -5
-16 4 -19 2 -13 -8 6 -9 4 -11 -4 -5 -8 4 -25 -1 -42 -14 -15 -11 -33 -21 -39
-21 -6 0 -8 -5 -4 -12 4 -7 3 -8 -5 -4 -15 9 -53 -3 -46 -15 3 -5 -1 -6 -9 -3
-9 3 -16 2 -16 -4 0 -5 -11 -13 -25 -16 -14 -4 -23 -11 -20 -16 4 -6 -1 -7
-11 -3 -11 4 -15 2 -11 -4 4 -6 -3 -8 -20 -5 -14 3 -23 1 -20 -4 3 -5 -8 -10
-24 -11 -32 -2 -63 -26 -51 -38 4 -5 2 -5 -5 -1 -14 8 -65 -3 -59 -13 2 -3
-12 -6 -31 -7 -19 0 -38 -5 -41 -11 -4 -6 -19 -15 -35 -18 -15 -4 -24 -12 -20
-18 3 -6 1 -7 -5 -3 -15 9 -83 -4 -77 -14 3 -5 -4 -6 -14 -3 -11 3 -34 -2 -52
-11 -18 -9 -38 -16 -46 -16 -8 0 -12 -4 -9 -8 3 -5 -9 -6 -26 -4 -23 4 -29 2
-23 -8 5 -9 4 -11 -4 -6 -14 9 -93 -3 -87 -13 3 -4 -11 -5 -30 -3 -22 3 -34 0
-34 -8 0 -8 -9 -11 -26 -7 -16 3 -24 0 -21 -7 3 -8 -7 -10 -31 -8 -19 3 -32 0
-29 -4 3 -5 -13 -8 -35 -6 -22 3 -38 0 -35 -4 3 -5 -15 -7 -40 -5 -25 2 -43
-1 -40 -5 2 -5 -47 -10 -111 -12 -66 -2 -119 -7 -123 -13 -4 -6 -45 -9 -108
-7 -65 2 -100 -1 -97 -7 2 -6 -18 -10 -49 -10 -29 0 -51 3 -48 8 2 4 -56 7
-131 7 -75 0 -136 4 -138 9 -1 6 -55 11 -119 13 -64 2 -115 7 -112 12 3 4 -15
7 -40 5 -25 -2 -43 0 -40 5 3 4 -13 7 -35 4 -22 -2 -38 1 -35 6 3 4 -10 7 -29
4 -24 -2 -34 0 -31 8 3 7 -5 10 -21 7 -17 -4 -26 -1 -26 7 0 8 -12 11 -34 8
-19 -2 -33 -1 -30 3 6 10 -73 22 -87 13 -8 -5 -9 -3 -4 6 6 10 0 12 -23 8 -17
-2 -29 -1 -26 4 3 4 -6 8 -20 8 -13 0 -26 5 -28 12 -2 6 -20 12 -40 12 -20 1
-34 4 -32 7 6 10 -64 21 -78 13 -6 -4 -8 -3 -5 3 4 6 -5 14 -20 18 -16 3 -31
12 -35 18 -3 6 -22 11 -41 11 -19 1 -32 5 -29 10 3 5 -2 6 -12 3 -11 -5 -15
-3 -10 5 5 7 -1 9 -20 6 -15 -3 -25 -3 -22 0 10 10 -24 33 -53 35 -16 1 -27 6
-24 11 3 5 -6 7 -20 4 -17 -3 -24 -1 -20 5 4 6 0 8 -11 4 -10 -4 -15 -3 -11 3
3 5 -6 12 -20 16 -14 3 -25 11 -25 16 0 6 -7 7 -16 4 -10 -4 -13 -2 -8 6 5 7
-1 9 -20 6 -14 -3 -29 -1 -33 5 -4 6 -1 7 7 2 9 -5 11 -4 6 3 -4 7 -12 12 -18
12 -6 0 -19 7 -29 16 -9 8 -26 16 -37 17 -11 0 -18 5 -15 11 4 5 -3 7 -15 4
-14 -4 -20 -2 -15 5 4 7 0 8 -11 4 -9 -4 -14 -3 -11 2 3 5 -4 13 -16 16 -11 4
-30 16 -41 27 -12 12 -28 18 -39 15 -12 -3 -17 -1 -12 6 4 6 0 8 -10 4 -9 -3
-19 -1 -23 5 -4 7 -3 8 4 4 7 -4 12 -2 12 4 0 12 -48 33 -60 25 -5 -3 -12 0
-16 6 -5 8 -2 10 7 5 8 -4 3 2 -11 13 -14 11 -28 21 -33 21 -4 0 -16 9 -28 21
-11 11 -27 18 -35 15 -10 -4 -12 -2 -8 6 5 8 2 9 -9 5 -9 -3 -16 -3 -16 1 3
19 -2 33 -10 27 -5 -3 -12 -1 -16 5 -4 6 -10 8 -15 5 -5 -3 -12 0 -16 6 -5 8
-2 10 7 5 8 -4 3 2 -11 13 -14 11 -28 21 -32 21 -4 0 -18 11 -32 25 -24 24
-53 35 -41 15 10 -16 -1 -11 -16 7 -10 11 -10 14 -1 9 6 -4 12 -3 12 3 0 14
-49 46 -57 37 -10 -10 -32 14 -26 30 5 13 -34 36 -48 28 -4 -2 -12 3 -19 11
-7 8 -9 15 -6 15 4 0 2 9 -5 21 -7 14 -17 19 -29 16 -11 -3 -24 1 -31 9 -6 8
-8 14 -3 14 4 0 -3 11 -16 25 -12 13 -26 22 -30 20 -4 -3 -13 2 -20 10 -7 8
-9 15 -5 15 5 0 0 9 -10 20 -10 11 -21 17 -25 15 -4 -3 -13 2 -20 10 -7 8 -9
15 -4 15 4 0 -3 11 -16 25 -12 13 -26 22 -31 20 -7 -5 -23 13 -24 25 -1 15
-34 50 -45 48 -7 -2 -14 8 -16 22 -5 25 -22 42 -35 34 -9 -5 -22 14 -26 36 -1
8 -7 16 -13 18 -5 2 -7 9 -3 15 4 6 0 8 -10 4 -18 -7 -30 6 -34 37 -4 23 -21
46 -35 46 -5 0 -6 -6 -2 -12 6 -10 3 -9 -8 0 -9 8 -14 20 -12 27 3 7 -4 23
-15 34 -12 12 -18 21 -14 21 3 0 -2 9 -12 20 -10 11 -22 17 -26 14 -5 -3 -6 3
-2 12 5 13 3 15 -7 9 -7 -5 -11 -4 -8 1 10 17 -11 55 -29 52 -13 -2 -17 3 -15
16 2 10 -1 15 -7 11 -6 -3 -9 0 -5 8 3 8 -2 22 -11 30 -9 9 -15 19 -15 22 1 3
-8 18 -20 33 -12 15 -18 21 -14 13 5 -9 3 -12 -5 -7 -6 4 -9 12 -6 17 8 12
-30 61 -39 51 -4 -3 -4 2 0 12 6 15 4 17 -6 11 -8 -5 -11 -4 -7 3 9 14 -3 43
-14 36 -5 -3 -6 2 -3 10 3 9 1 16 -5 16 -6 0 -11 6 -11 13 0 7 -7 22 -16 33
-8 10 -12 13 -8 5 5 -9 3 -12 -5 -7 -6 4 -9 12 -5 17 7 12 -15 69 -26 69 -4 0
-11 11 -14 25 -4 14 -11 23 -16 20 -6 -4 -7 1 -3 11 4 11 3 15 -4 11 -7 -5 -9
0 -6 11 2 11 -2 26 -11 34 -8 9 -12 18 -9 22 4 3 1 6 -5 6 -7 0 -12 9 -12 21
0 11 -4 17 -10 14 -6 -4 -7 1 -3 11 4 12 3 15 -5 10 -7 -4 -10 -2 -7 7 3 7 -2
31 -12 53 -9 21 -16 43 -14 48 1 5 -5 6 -12 3 -11 -4 -13 0 -9 15 3 13 1 19
-5 15 -6 -4 -8 4 -5 20 3 18 1 24 -6 19 -8 -5 -10 -1 -5 10 4 11 2 15 -4 11
-6 -4 -8 3 -5 18 3 16 0 25 -8 25 -7 0 -10 7 -6 15 3 8 1 15 -4 15 -6 0 -10 9
-10 21 0 13 -4 18 -12 13 -7 -4 -8 -3 -4 5 9 13 -2 73 -12 67 -4 -2 -7 12 -8
31 0 19 -6 38 -14 43 -7 5 -11 17 -7 30 4 16 2 20 -9 16 -9 -3 -12 -2 -9 5 9
14 -4 81 -14 75 -4 -3 -5 9 -3 26 3 17 1 28 -5 25 -5 -3 -7 9 -5 29 3 22 0 34
-8 34 -6 0 -10 10 -9 23 1 12 -1 29 -4 37 -8 19 -37 219 -37 254 0 15 -3 25
-8 23 -4 -3 -5 22 -4 55 3 43 0 63 -9 69 -19 11 -20 666 -2 677 8 5 13 44 15
109 2 55 7 98 12 96 4 -3 7 13 4 35 -2 22 1 38 5 35 5 -3 8 13 5 35 -2 22 1
38 6 35 4 -3 7 10 4 29 -2 24 0 34 7 31 8 -2 10 7 7 27 -3 19 0 30 8 30 8 0
11 11 8 29 -2 17 -1 28 3 25 10 -6 22 73 13 87 -5 8 -3 9 6 4 10 -6 12 0 8 23
-3 23 -1 29 11 24 8 -3 12 -1 8 5 -4 6 0 25 9 42 9 18 14 43 11 56 -2 15 0 22
6 18 6 -4 8 2 5 15 -4 14 -2 20 4 16 7 -5 9 2 6 19 -3 15 -2 24 2 22 4 -3 11
7 15 22 3 16 12 31 18 35 6 3 11 22 11 41 1 19 4 33 7 31 10 -6 21 45 13 58
-4 7 -3 8 4 4 7 -4 12 -1 12 8 0 8 5 16 11 18 7 2 12 18 13 35 0 17 4 29 8 27
10 -6 20 34 12 48 -4 7 -4 10 0 6 11 -10 34 14 29 29 -3 7 0 13 7 13 7 0 10 8
7 20 -3 11 -1 18 3 15 12 -7 23 32 14 46 -5 8 -3 9 6 4 10 -6 12 -4 7 9 -4 9
-3 15 1 12 14 -9 32 10 34 36 1 15 5 25 9 22 11 -6 21 34 13 48 -4 7 -4 10 0
6 11 -10 34 14 29 29 -3 7 0 13 7 13 7 0 10 7 7 15 -4 8 -1 17 5 21 7 5 8 2 4
-7 -4 -8 0 -5 9 6 9 11 14 28 12 37 -3 11 0 15 8 11 16 -6 49 53 39 69 -5 7
-3 8 6 3 10 -6 12 -4 7 9 -4 10 -3 15 3 11 6 -3 13 1 17 10 3 10 17 29 30 43
13 15 22 34 20 43 -3 11 0 16 8 12 15 -5 39 32 30 47 -3 5 0 12 6 16 8 5 9 3
4 -6 -6 -9 -4 -11 4 -6 7 5 10 15 7 23 -3 8 -2 12 3 9 11 -7 44 30 37 42 -3 5
2 16 12 23 16 13 16 13 2 -6 -14 -19 -14 -19 3 -6 10 8 16 22 14 32 -3 11 0
16 7 13 17 -6 49 31 51 59 1 14 8 21 17 19 20 -3 42 24 35 42 -6 16 16 40 26
29 10 -10 48 29 43 44 -3 7 0 15 6 19 7 5 8 2 3 -6 -6 -9 -4 -11 4 -6 7 5 10
14 7 22 -3 8 0 11 9 8 7 -3 18 4 25 15 6 12 8 21 4 21 -3 0 -1 7 6 15 7 9 15
13 18 11 9 -10 43 16 38 29 -6 16 24 44 41 38 6 -2 17 5 23 16 6 12 8 21 4 21
-3 0 -1 7 6 15 7 8 16 13 20 10 5 -3 15 1 23 9 8 8 18 12 22 8 5 -4 5 1 2 10
-6 17 15 43 26 31 4 -3 16 2 27 12 22 20 27 41 8 29 -10 -6 -9 -3 0 8 8 9 20
14 28 11 18 -7 57 26 50 42 -2 6 5 11 17 11 12 -1 22 5 22 13 0 8 8 15 18 17
24 3 58 34 51 45 -3 5 1 7 8 4 7 -3 31 12 53 31 22 20 34 33 26 29 -9 -5 -12
-4 -7 3 4 6 13 9 21 6 18 -7 67 26 62 41 -3 6 4 11 17 11 11 -1 20 4 19 11 -2
7 4 10 12 7 9 -4 18 1 21 11 4 9 13 14 20 11 13 -5 18 5 15 26 0 4 7 4 16 1
10 -4 14 -2 10 4 -4 7 0 9 11 7 9 -3 26 3 37 13 11 11 28 22 38 26 10 4 15 11
12 17 -4 6 1 7 11 3 11 -4 15 -3 11 4 -5 7 0 9 11 6 11 -2 25 2 33 9 8 8 18
15 24 15 5 1 11 7 14 14 2 7 -1 9 -9 4 -8 -5 -11 -4 -7 3 4 5 17 8 29 4 14 -3
19 -1 14 6 -5 8 -1 10 10 5 10 -3 15 -2 12 3 -4 5 5 10 18 10 23 2 57 27 48
36 -3 3 6 3 19 1 14 -3 28 1 32 8 6 8 4 10 -5 4 -8 -5 -11 -4 -6 3 4 6 14 8
23 5 10 -4 14 -2 10 4 -4 6 3 8 18 5 15 -2 25 0 25 7 0 7 5 9 12 5 8 -5 9 -2
5 10 -4 10 -3 15 3 11 15 -9 61 6 53 18 -3 6 -1 7 6 3 12 -8 81 13 81 25 0 4
14 10 30 14 17 4 28 10 25 14 -2 5 7 6 22 3 17 -3 24 -1 19 6 -4 6 2 8 16 4
14 -3 19 -1 14 6 -5 8 -2 10 8 6 9 -3 24 -3 33 2 10 4 20 8 23 9 3 2 15 6 27
10 13 4 20 12 16 18 -3 6 -1 7 6 3 13 -9 73 2 67 12 -2 4 14 7 36 8 22 0 43 6
48 13 5 8 17 12 30 8 15 -4 20 -2 17 7 -4 9 4 11 25 8 18 -3 28 -1 25 5 -3 5
10 7 30 5 27 -4 34 -1 28 8 -5 8 -4 11 2 7 14 -9 173 15 173 25 0 4 14 8 31 8
16 0 28 3 26 8 -3 4 20 5 50 4 31 -2 53 0 50 5 -3 4 18 6 45 4 28 -2 48 1 45
6 -3 5 160 9 383 9 227 0 386 -4 383 -9z"/>
<path d="M3770 6939 c0 -7 -20 -10 -55 -7 -34 2 -54 -1 -51 -7 2 -6 -16 -9
-46 -6 -28 2 -48 -1 -45 -6 3 -4 -13 -7 -35 -5 -23 3 -38 0 -35 -5 3 -5 -10
-7 -30 -5 -20 3 -33 1 -30 -4 2 -5 -20 -10 -50 -11 -31 -1 -59 -6 -62 -11 -3
-5 -23 -12 -44 -16 -21 -4 -35 -10 -33 -15 3 -4 -9 -5 -26 -3 -17 3 -28 1 -25
-4 3 -5 -13 -9 -35 -10 -22 0 -43 -6 -48 -13 -4 -8 -15 -11 -24 -8 -9 4 -16 2
-16 -3 0 -6 -7 -10 -16 -10 -8 0 -13 -4 -10 -9 3 -4 -6 -6 -21 -3 -17 3 -24 1
-19 -6 4 -6 -2 -8 -16 -4 -13 3 -19 1 -15 -5 4 -6 -3 -8 -17 -6 -12 3 -29 -2
-37 -9 -8 -8 -27 -18 -42 -22 -17 -4 -25 -11 -21 -18 4 -7 3 -8 -5 -4 -18 11
-63 -2 -55 -16 4 -7 3 -8 -5 -4 -6 4 -18 2 -26 -4 -8 -7 -15 -9 -15 -6 0 4 -6
1 -14 -6 -8 -7 -11 -17 -8 -22 3 -5 0 -6 -7 -2 -13 8 -53 -2 -47 -12 2 -4 -8
-8 -22 -9 -15 0 -28 -6 -30 -12 -2 -6 -9 -8 -15 -4 -6 4 -8 0 -4 -10 4 -12 2
-14 -10 -10 -12 5 -14 3 -8 -7 5 -9 4 -11 -4 -6 -16 10 -53 -3 -45 -16 4 -7 2
-8 -5 -4 -13 8 -64 -28 -53 -38 3 -4 -2 -4 -12 0 -11 4 -17 3 -14 -2 4 -5 -6
-10 -20 -11 -15 0 -34 -11 -43 -22 -10 -12 -22 -21 -28 -21 -5 0 -13 -5 -17
-12 -5 -7 -3 -8 6 -3 8 5 11 4 6 -3 -4 -6 -14 -8 -23 -5 -12 5 -14 3 -8 -7 5
-7 4 -11 -1 -8 -16 10 -56 -11 -51 -27 4 -10 1 -12 -10 -8 -11 4 -14 2 -9 -5
4 -7 2 -10 -6 -7 -8 3 -48 -23 -89 -57 -92 -77 -181 -156 -154 -137 18 13 19
13 7 -3 -8 -9 -19 -15 -26 -12 -14 6 -42 -23 -33 -33 11 -10 -13 -32 -29 -26
-18 7 -46 -16 -40 -33 5 -14 -17 -37 -27 -27 -11 10 -48 -29 -42 -44 3 -9 0
-11 -7 -7 -8 5 -9 2 -5 -10 4 -9 3 -15 -2 -12 -11 7 -42 -16 -44 -34 -4 -25
-17 -39 -31 -34 -17 6 -40 -22 -33 -40 3 -8 -1 -20 -9 -26 -8 -7 -14 -9 -14
-4 -1 5 -9 -2 -20 -15 -11 -12 -18 -27 -15 -31 3 -5 0 -12 -6 -16 -8 -5 -9 -3
-4 7 12 20 2 10 -44 -46 -40 -49 -52 -73 -29 -59 7 4 8 3 4 -5 -4 -6 -12 -8
-18 -5 -7 5 -9 2 -5 -8 3 -10 0 -15 -11 -14 -11 1 -17 -7 -17 -21 0 -13 -7
-28 -15 -35 -12 -11 -12 -10 0 7 14 18 14 19 -2 7 -10 -8 -20 -23 -23 -33 -4
-11 -17 -31 -31 -46 -28 -30 -32 -48 -6 -33 9 6 40 23 67 39 28 16 50 35 49
43 -1 8 9 13 25 13 16 0 26 6 26 15 1 8 6 14 13 13 23 -5 64 17 59 32 -4 10
-1 12 10 8 10 -4 14 -2 10 4 -5 7 0 9 12 6 10 -3 22 1 26 8 6 8 4 10 -5 4 -9
-5 -11 -4 -6 4 4 6 12 9 17 5 9 -5 79 32 79 42 0 3 -5 2 -12 -2 -7 -4 -8 -3
-4 5 4 6 12 9 17 6 13 -9 50 5 44 16 -3 5 1 6 9 3 9 -4 18 1 22 10 3 9 13 16
21 16 8 0 11 4 8 10 -4 6 1 7 11 3 12 -4 15 -3 10 5 -4 8 -2 10 8 6 20 -8 59
15 52 31 -3 10 0 12 11 8 12 -5 14 -3 8 7 -5 9 -4 11 4 6 14 -9 53 2 46 14 -3
4 3 6 13 3 11 -2 26 3 35 11 8 9 22 16 29 16 19 1 49 26 41 34 -4 4 1 4 11 0
15 -6 17 -4 11 6 -5 9 -4 11 4 6 17 -11 53 4 48 19 -3 7 0 12 6 12 32 -1 48 4
42 13 -4 6 1 7 11 3 10 -3 15 -2 12 3 -3 5 8 10 25 10 17 1 33 6 35 13 2 6 8
9 13 5 5 -3 9 0 9 5 0 6 9 11 21 11 11 0 17 4 14 10 -3 5 0 8 7 5 7 -3 43 -1
80 3 43 5 65 5 61 -2 -4 -5 1 -7 11 -3 10 4 15 3 11 -3 -3 -6 1 -10 9 -10 9 0
16 -5 16 -12 0 -6 3 -9 6 -5 4 3 13 -1 22 -9 8 -9 23 -13 34 -11 11 3 16 1 11
-6 -4 -7 0 -8 11 -4 9 4 14 3 11 -2 -3 -5 4 -13 16 -16 11 -4 30 -16 41 -27
12 -12 28 -18 39 -15 12 3 17 1 12 -6 -4 -7 0 -8 11 -4 10 4 15 3 11 -3 -3 -5
6 -12 20 -16 14 -3 25 -11 25 -16 0 -6 7 -7 16 -4 8 3 12 2 9 -3 -6 -11 31
-25 44 -16 5 3 13 0 17 -6 5 -8 3 -9 -7 -4 -8 4 -4 -2 9 -15 13 -12 34 -23 47
-24 13 0 21 -4 19 -8 -6 -10 34 -20 47 -12 8 5 9 3 4 -6 -6 -10 -4 -12 8 -7
11 4 14 2 10 -9 -4 -10 0 -12 11 -8 9 4 16 1 16 -6 0 -7 7 -10 15 -7 8 4 17 1
21 -5 5 -7 2 -8 -7 -4 -8 4 -5 0 6 -9 11 -9 28 -14 38 -11 9 2 15 1 13 -2 -2
-4 2 -13 10 -20 8 -7 14 -10 14 -6 0 3 7 1 15 -6 8 -6 20 -8 26 -4 7 4 9 3 5
-4 -8 -13 29 -26 45 -16 8 5 9 3 4 -6 -6 -10 -4 -12 8 -7 12 4 14 2 10 -10 -4
-10 -2 -14 4 -10 6 4 13 2 15 -3 2 -6 13 -12 25 -13 12 0 20 -4 17 -8 -6 -11
34 -22 47 -13 8 5 9 3 4 -6 -6 -10 -4 -12 8 -7 12 4 14 2 10 -10 -4 -11 -2
-14 5 -9 7 4 12 2 12 -5 0 -6 8 -9 20 -6 13 3 18 1 13 -6 -4 -7 0 -8 11 -4 9
4 14 3 11 -2 -7 -12 31 -24 47 -15 7 4 10 4 6 -1 -11 -11 20 -37 46 -39 13 0
22 -4 20 -8 -6 -10 34 -20 47 -12 8 5 9 3 4 -6 -6 -10 -4 -12 8 -7 12 4 14 2
10 -10 -4 -11 -2 -14 5 -9 7 4 12 2 12 -5 0 -6 8 -9 20 -6 13 3 18 1 13 -6 -4
-7 0 -8 11 -4 9 4 14 3 11 -2 -7 -12 31 -24 46 -15 8 4 9 3 5 -4 -4 -7 -1 -12
8 -12 8 0 16 -5 18 -11 2 -6 15 -12 30 -12 14 -1 24 -6 21 -11 -3 -5 6 -7 20
-4 15 3 24 1 21 -3 -3 -5 27 -9 66 -9 39 0 69 4 66 8 -3 5 9 6 26 4 17 -3 28
-1 25 4 -3 5 13 10 35 11 23 0 43 6 47 11 3 5 21 13 39 17 18 3 30 10 28 14
-3 4 3 7 12 7 46 0 73 5 69 12 -3 4 19 5 49 4 37 -3 54 0 54 8 0 8 12 11 35 8
22 -3 34 0 32 6 -3 7 12 10 41 7 34 -2 43 0 37 9 -6 9 -4 11 4 5 15 -9 183 4
177 13 -2 4 20 5 50 4 57 -4 89 10 80 34 -3 8 0 11 8 8 8 -3 17 0 22 7 5 8 3
10 -6 4 -8 -5 -11 -4 -7 3 4 5 16 8 27 5 12 -3 22 1 26 11 3 9 9 14 13 12 3
-2 20 7 36 21 17 14 23 22 15 17 -8 -4 -12 -3 -8 1 5 5 20 10 35 11 15 2 29 8
31 14 2 5 9 7 15 3 7 -4 8 0 4 11 -4 11 -3 15 4 10 12 -7 52 10 82 35 9 8 17
11 17 7 0 -4 6 -1 14 6 8 7 11 17 8 22 -3 5 0 6 7 2 15 -9 53 3 46 15 -3 5 2
6 11 2 11 -4 15 -3 11 4 -5 7 0 9 13 6 12 -3 20 0 20 6 0 7 5 9 12 5 7 -5 9
-2 5 9 -4 12 -2 14 10 10 12 -5 14 -3 8 7 -5 8 -4 11 3 6 16 -10 63 4 55 17
-3 6 -1 7 6 3 18 -12 53 4 47 20 -3 9 -1 12 5 9 14 -9 61 3 54 14 -3 5 5 7 17
3 12 -3 19 -1 15 5 -4 5 6 8 25 5 19 -3 28 -1 25 5 -4 6 4 8 18 5 16 -3 25 0
25 8 0 7 8 10 20 7 11 -3 20 -2 20 3 0 4 15 10 34 12 26 3 33 1 28 -11 -3 -9
-1 -12 6 -7 7 4 12 2 12 -5 0 -6 8 -9 20 -6 19 5 45 -14 34 -25 -9 -9 48 -48
60 -41 6 3 8 3 4 -2 -4 -4 0 -14 10 -21 21 -17 36 -18 26 -2 -4 7 -3 8 4 4 6
-4 8 -14 5 -23 -4 -10 -2 -14 4 -10 6 4 14 0 17 -9 4 -10 14 -14 26 -11 11 3
23 0 27 -5 4 -7 1 -8 -7 -3 -9 6 -11 4 -6 -4 5 -7 15 -10 23 -7 8 3 11 2 8 -4
-8 -13 41 -43 56 -34 7 4 9 3 5 -4 -8 -13 29 -26 45 -16 8 5 9 3 4 -6 -6 -9 1
-12 27 -8 28 3 35 1 30 -11 -3 -9 -1 -12 7 -7 6 4 32 -2 56 -14 25 -12 52 -19
60 -16 8 3 17 0 21 -6 5 -7 2 -8 -7 -3 -8 4 -5 -1 6 -11 13 -13 29 -19 47 -16
18 3 28 0 28 -8 0 -8 9 -11 25 -8 13 3 22 2 20 -2 -2 -4 7 -12 21 -19 32 -14
43 -14 23 2 -8 7 -18 20 -22 30 -4 10 -11 15 -17 12 -5 -3 -7 0 -4 8 3 8 0 18
-7 23 -8 5 -10 3 -4 -7 5 -8 4 -11 -1 -6 -4 4 -9 18 -9 30 0 15 -6 22 -20 22
-13 0 -19 6 -17 18 4 23 -37 80 -53 73 -8 -3 -11 2 -8 13 3 11 -5 26 -21 38
-14 11 -23 22 -21 25 3 3 -7 15 -22 29 -20 18 -24 19 -13 4 14 -18 14 -19 -2
-6 -10 7 -16 16 -14 20 8 14 -15 53 -29 47 -15 -5 -28 8 -32 33 -2 17 -17 32
-34 34 -23 4 -40 18 -33 28 8 14 -17 41 -32 35 -14 -5 -27 9 -31 33 -2 17 -17
32 -34 34 -23 4 -40 18 -33 28 8 14 -16 41 -32 35 -7 -2 -20 5 -31 17 l-18 22
24 -20 25 -20 -20 26 c-10 15 -22 25 -26 23 -4 -2 -9 0 -13 6 -4 6 -10 8 -15
5 -4 -3 -14 3 -21 13 -13 16 -12 16 6 2 20 -15 20 -14 1 8 -11 12 -22 22 -26
22 -5 0 -23 14 -41 31 -59 55 -98 81 -114 76 -8 -4 -17 -1 -21 5 -5 7 -2 8 7
3 8 -4 1 5 -15 19 -17 15 -36 24 -43 22 -7 -3 -15 0 -19 6 -5 7 -2 8 7 4 8 -4
3 2 -11 13 -14 11 -28 21 -32 21 -5 0 -17 9 -29 21 -12 12 -29 19 -40 16 -10
-3 -22 0 -26 5 -4 7 -1 8 8 4 8 -4 3 2 -11 13 -24 20 -36 25 -53 22 -5 -1 -6
3 -3 8 7 11 -24 23 -45 19 -8 -2 -13 4 -11 14 2 12 -2 16 -13 12 -8 -4 -15 -1
-15 6 0 7 -8 10 -20 7 -13 -3 -18 -1 -13 6 4 7 0 8 -11 4 -9 -4 -14 -3 -11 2
7 12 -31 24 -46 15 -7 -4 -10 -3 -7 2 3 5 0 15 -8 22 -8 7 -14 10 -14 6 0 -3
-7 -1 -15 6 -8 7 -22 10 -30 6 -9 -3 -13 -2 -10 3 7 12 -31 24 -46 15 -7 -4
-9 -3 -6 3 4 6 -5 14 -20 18 -16 3 -31 11 -34 17 -4 6 -20 11 -37 12 -17 0
-28 5 -24 10 3 5 -5 7 -16 4 -14 -4 -20 -2 -16 4 5 7 -2 9 -19 6 -15 -3 -24
-1 -21 3 3 5 -2 9 -10 9 -9 0 -16 4 -16 10 0 5 -7 7 -16 3 -9 -3 -20 0 -24 7
-5 8 -24 14 -43 14 -19 1 -33 5 -30 10 3 5 -8 7 -25 4 -17 -2 -29 -1 -26 3 2
4 -15 10 -38 14 -24 4 -46 11 -49 16 -3 5 -30 10 -61 12 -31 1 -54 6 -51 11 3
4 -13 7 -35 4 -22 -2 -38 1 -35 6 3 4 -10 7 -30 4 -20 -2 -33 0 -30 5 3 5 -17
8 -45 6 -30 -3 -48 0 -46 6 3 6 -17 9 -51 7 -35 -3 -55 0 -55 7 0 8 -80 11
-265 11 -185 0 -265 -3 -265 -11z m-1670 -693 c0 -2 -8 -10 -17 -17 -16 -13
-17 -12 -4 4 13 16 21 21 21 13z m4341 -473 c13 -16 12 -17 -3 -4 -17 13 -22
21 -14 21 2 0 10 -8 17 -17z"/>
<path d="M5961 6666 l-43 -44 22 -22 c12 -12 28 -19 35 -16 7 2 19 -3 27 -12
11 -13 11 -14 -1 -8 -9 6 -12 5 -9 -5 3 -8 11 -13 17 -11 6 1 11 -3 11 -9 0
-6 9 -9 20 -6 11 3 25 -2 32 -12 12 -15 11 -15 -7 -1 -20 15 -20 14 -1 -8 11
-12 22 -22 26 -22 4 0 28 -20 55 -45 27 -24 52 -42 56 -39 4 2 11 -1 15 -7 5
-8 3 -9 -7 -4 -12 7 -12 6 0 -9 8 -10 23 -15 33 -13 10 3 15 1 12 -5 -3 -5 4
-20 17 -34 22 -24 46 -34 34 -14 -10 16 1 11 16 -7 10 -11 10 -14 2 -9 -22 12
-14 -9 11 -33 13 -12 30 -21 37 -19 8 2 13 -3 11 -11 -2 -7 7 -24 19 -37 24
-25 45 -33 33 -11 -6 9 -3 8 8 -1 9 -8 15 -19 12 -26 -6 -15 29 -48 47 -44 8
2 13 -7 13 -22 1 -17 6 -24 16 -22 8 2 12 0 7 -4 -9 -9 43 -65 54 -58 5 3 7
-1 4 -8 -2 -7 12 -31 32 -53 20 -22 32 -34 28 -26 -5 9 -4 12 3 8 5 -4 8 -15
5 -25 -5 -19 22 -50 34 -39 11 12 31 -13 26 -33 -3 -12 1 -22 11 -26 9 -3 13
-10 10 -16 -3 -5 2 -8 12 -6 14 2 18 -2 16 -19 -2 -12 2 -25 9 -29 8 -5 9 -3
4 6 -5 8 -4 11 3 6 6 -4 9 -13 6 -21 -4 -8 1 -18 10 -21 9 -3 16 -12 16 -19 0
-8 5 -17 12 -21 7 -5 8 -3 3 6 -5 8 -4 11 3 6 6 -4 8 -14 5 -23 -4 -11 -3 -14
5 -9 8 4 10 2 6 -7 -3 -8 2 -22 11 -30 9 -9 15 -20 15 -24 -1 -4 4 -9 11 -12
7 -2 9 1 4 9 -5 8 -4 11 3 7 5 -4 8 -17 4 -29 -3 -14 -1 -19 6 -14 8 5 10 1 5
-10 -4 -11 -3 -15 4 -11 7 5 9 0 6 -13 -3 -12 1 -22 11 -26 9 -3 13 -11 9 -17
-4 -6 0 -8 10 -4 12 4 14 2 10 -10 -5 -12 -3 -14 7 -8 9 5 11 4 6 -4 -9 -15 3
-53 15 -46 5 3 6 0 3 -8 -3 -8 0 -18 5 -22 6 -3 8 -11 5 -17 -5 -7 -1 -9 9 -5
12 4 14 2 10 -10 -5 -12 -3 -14 7 -8 9 5 11 4 6 -4 -8 -13 2 -53 12 -47 4 2 8
-7 8 -20 3 -39 13 -57 30 -50 9 3 12 2 9 -4 -8 -13 4 -72 13 -66 4 2 8 -7 9
-21 0 -14 6 -29 13 -33 6 -4 10 -13 9 -21 -3 -22 12 -50 24 -42 6 3 7 1 3 -6
-9 -13 2 -73 12 -67 4 2 7 -12 8 -31 0 -19 5 -38 11 -41 6 -4 14 -24 18 -44 4
-21 11 -36 15 -33 4 2 5 -7 2 -22 -3 -14 -1 -24 4 -21 5 3 10 -14 10 -38 1
-24 7 -51 14 -59 7 -8 9 -22 6 -31 -4 -11 -2 -15 7 -11 10 4 12 -3 9 -25 -3
-17 -1 -28 4 -25 5 3 8 -13 6 -35 -3 -23 0 -38 5 -35 5 3 7 -10 5 -30 -3 -20
-1 -33 4 -30 5 2 10 -32 12 -76 1 -45 7 -84 13 -88 7 -4 9 -31 7 -68 -2 -38 1
-60 7 -57 6 2 9 -34 7 -100 l-3 -104 50 0 c82 0 81 -1 81 112 0 54 -3 97 -7
95 -5 -3 -6 22 -5 55 2 33 0 63 -5 67 -5 3 -15 55 -22 115 -16 143 -21 167
-34 159 -6 -3 -7 -1 -3 6 12 19 -5 123 -18 118 -8 -3 -11 5 -8 25 4 23 2 29
-8 23 -9 -5 -11 -4 -6 4 9 15 -3 93 -13 86 -5 -2 -6 7 -3 22 3 17 1 24 -6 19
-6 -4 -8 2 -5 14 3 12 0 20 -7 20 -8 0 -11 9 -7 26 3 19 1 24 -10 20 -8 -3
-11 -1 -8 4 10 16 -5 71 -17 64 -7 -4 -8 -2 -4 5 9 14 -14 101 -26 101 -4 0
-8 7 -8 16 0 9 -5 12 -12 8 -7 -4 -8 -3 -4 5 9 15 -3 53 -15 46 -5 -3 -6 2 -2
11 4 11 2 15 -4 11 -6 -4 -8 3 -5 18 2 15 0 25 -7 25 -7 0 -9 5 -5 12 5 8 2 9
-10 5 -10 -4 -15 -3 -11 3 8 13 -5 61 -16 54 -5 -3 -6 3 -2 12 4 11 3 15 -4
11 -7 -5 -9 0 -6 11 2 11 -2 26 -10 33 -8 8 -18 25 -21 37 -4 12 -12 20 -17
17 -5 -3 -6 2 -2 11 4 11 3 15 -4 11 -7 -5 -9 0 -6 11 2 11 -2 26 -11 34 -8 9
-12 19 -8 23 4 5 0 6 -9 3 -11 -4 -15 0 -15 16 1 11 -4 20 -11 19 -8 -2 -10 4
-6 14 4 11 3 14 -5 9 -8 -4 -10 -2 -6 8 8 20 -15 59 -31 53 -8 -4 -11 1 -8 12
2 9 -7 28 -20 43 -13 14 -27 33 -30 43 -4 9 -11 13 -17 10 -5 -3 -7 0 -4 8 3
8 0 18 -7 23 -8 5 -10 3 -4 -6 5 -8 4 -11 -3 -7 -5 4 -8 16 -5 27 7 24 -14 51
-36 48 -11 -2 -15 3 -13 19 2 12 -2 25 -9 29 -8 5 -9 3 -4 -6 5 -9 4 -11 -4
-6 -6 4 -9 12 -6 17 5 8 -102 149 -113 149 -3 0 2 -8 9 -17 13 -16 12 -17 -3
-4 -10 7 -16 16 -14 20 8 14 -15 53 -28 48 -15 -6 -40 16 -30 26 10 10 -28 57
-45 55 -10 -2 -16 4 -16 17 0 13 -6 19 -15 17 -8 -2 -12 0 -8 4 4 4 3 13 -3
21 -14 16 -33 18 -23 1 4 -7 3 -8 -4 -4 -6 4 -9 12 -6 19 6 16 -38 59 -57 55
-7 -2 -13 6 -14 17 0 12 -6 19 -15 17 -8 -2 -12 0 -8 4 9 8 -10 34 -24 34 -5
0 -6 -6 -2 -12 5 -9 2 -9 -9 1 -18 15 -23 26 -7 16 20 -12 10 12 -14 34 -15
14 -30 20 -37 16 -8 -6 -10 -4 -4 5 6 10 4 12 -9 7 -11 -4 -15 -3 -11 4 4 6
-1 19 -11 30 -18 20 -40 27 -29 9 10 -16 -1 -11 -16 7 -12 15 -12 16 1 8 8 -5
3 4 -12 19 -15 15 -31 25 -37 22 -5 -4 -13 -1 -17 5 -5 8 -3 9 6 4 9 -6 11 -4
6 4 -5 7 -15 10 -23 7 -8 -3 -12 -2 -9 3 7 11 -38 53 -55 49 -7 -2 -13 4 -14
12 0 9 -9 15 -22 14 -12 0 -19 5 -16 11 3 10 -36 45 -50 45 -1 0 -22 -20 -46
-44z"/>
<path d="M1419 6513 c-13 -16 -12 -17 4 -4 9 7 17 15 17 17 0 8 -8 3 -21 -13z"/>
<path d="M6630 6526 c0 -2 8 -10 18 -17 15 -13 16 -12 3 4 -13 16 -21 21 -21
13z"/>
<path d="M1776 6491 c-10 -11 -15 -24 -11 -30 4 -7 0 -8 -11 -4 -13 5 -15 3
-9 -7 6 -9 4 -11 -4 -5 -7 4 -22 -2 -37 -16 -25 -24 -33 -46 -11 -33 8 5 8 2
-2 -9 -15 -18 -26 -23 -16 -7 9 15 -11 12 -24 -3 -6 -8 -7 -17 -3 -21 4 -4 0
-6 -8 -4 -9 2 -15 -5 -15 -17 -1 -11 -7 -19 -14 -17 -19 4 -63 -39 -57 -55 3
-7 0 -15 -6 -19 -7 -4 -8 -3 -4 4 10 17 -9 15 -23 -1 -6 -8 -7 -17 -3 -21 4
-4 0 -6 -8 -4 -9 2 -15 -4 -15 -17 0 -13 -6 -19 -17 -17 -19 3 -53 -41 -44
-56 3 -6 -2 -16 -11 -23 -12 -10 -14 -10 -9 -1 4 6 3 12 -2 12 -14 0 -31 -24
-35 -48 -2 -12 -10 -28 -17 -35 -11 -9 -11 -7 0 7 14 18 14 18 -7 6 -12 -8
-19 -18 -16 -23 3 -5 -5 -15 -17 -24 -12 -8 -19 -21 -16 -30 3 -8 2 -12 -3 -9
-4 3 -16 -3 -26 -14 -10 -11 -15 -20 -10 -20 4 0 -5 -10 -19 -21 -18 -14 -26
-28 -23 -40 3 -11 0 -16 -8 -12 -16 6 -39 -33 -29 -49 5 -7 3 -8 -6 -3 -10 6
-12 4 -7 -8 3 -9 1 -19 -5 -23 -7 -5 -8 -2 -3 7 4 8 -4 1 -19 -16 -14 -16 -23
-35 -21 -42 2 -7 -1 -15 -7 -19 -7 -5 -8 -2 -4 7 4 8 0 5 -9 -6 -9 -11 -14
-28 -12 -37 3 -11 0 -15 -8 -11 -16 6 -39 -33 -31 -53 4 -10 2 -12 -6 -8 -8 5
-9 2 -5 -10 4 -11 3 -15 -4 -11 -6 4 -13 -2 -16 -14 -3 -12 -10 -21 -16 -21
-6 0 -8 -3 -4 -6 3 -4 -1 -13 -9 -22 -9 -8 -13 -23 -11 -34 3 -11 1 -16 -6
-11 -7 4 -8 0 -4 -11 4 -9 3 -14 -2 -11 -5 3 -13 -5 -17 -17 -3 -12 -13 -29
-21 -37 -8 -7 -12 -22 -10 -33 3 -11 1 -16 -6 -11 -7 4 -8 0 -4 -11 4 -10 3
-15 -3 -11 -5 3 -12 -6 -16 -20 -3 -14 -10 -25 -16 -25 -5 0 -6 -5 -2 -11 3
-6 1 -15 -6 -19 -6 -4 -13 -19 -13 -33 -1 -14 -5 -23 -8 -21 -10 6 -21 -45
-13 -58 4 -7 3 -8 -4 -4 -7 4 -12 1 -12 -8 0 -9 -4 -16 -9 -16 -12 0 -35 -86
-26 -101 5 -7 4 -10 -3 -5 -12 7 -27 -48 -17 -64 3 -6 0 -7 -10 -4 -11 5 -14
2 -9 -10 4 -9 1 -16 -6 -16 -8 0 -11 -11 -8 -29 3 -18 0 -27 -5 -24 -6 4 -8
-5 -5 -20 3 -15 2 -24 -3 -22 -10 7 -22 -71 -13 -86 5 -8 3 -9 -6 -4 -10 6
-12 0 -8 -23 3 -20 0 -28 -7 -26 -14 6 -40 -129 -29 -147 4 -7 3 -9 -4 -5 -7
4 -13 -20 -18 -74 -3 -44 -10 -80 -13 -80 -4 0 -5 -16 -3 -36 3 -21 0 -39 -7
-43 -7 -5 -14 -68 -18 -182 l-6 -174 62 0 c75 0 74 -2 69 143 -2 55 0 98 4 95
5 -2 8 20 8 51 0 30 4 56 10 58 5 2 11 40 12 84 2 45 6 80 9 78 9 -5 21 114
13 128 -5 7 -3 8 6 3 9 -6 12 1 8 27 -2 25 0 34 8 31 9 -3 11 3 7 17 -3 12 -1
25 6 29 6 4 12 26 14 48 1 23 6 39 11 36 5 -3 7 8 4 25 -2 17 -1 29 3 26 5 -2
11 12 15 33 4 21 11 41 16 44 5 3 10 22 11 41 1 20 5 34 9 32 11 -7 21 43 12
57 -4 7 -3 9 3 6 12 -7 23 14 23 43 0 10 5 20 11 22 7 2 12 18 13 35 0 17 4
29 8 27 10 -6 20 34 12 47 -4 8 -3 9 4 5 7 -4 12 -1 12 8 0 8 5 16 11 18 6 2
12 15 12 30 1 14 5 24 9 22 10 -6 20 34 12 47 -5 8 -3 9 6 4 10 -6 12 -4 7 8
-4 11 -2 14 9 10 10 -4 12 0 8 11 -4 9 -1 16 6 16 7 0 10 7 6 16 -3 8 -2 12 3
9 12 -7 24 31 15 46 -5 8 -3 9 6 4 10 -6 12 -4 6 11 -4 10 -4 15 0 12 11 -12
47 30 40 47 -3 9 -2 13 3 10 11 -6 23 26 19 46 -2 9 4 13 17 11 11 -2 17 -1
13 3 -4 4 0 14 8 22 8 9 13 22 10 30 -4 9 -2 11 6 7 8 -5 9 -2 5 9 -3 9 -1 19
5 23 7 5 8 2 3 -6 -5 -9 -4 -11 3 -6 7 4 12 13 12 21 0 7 5 15 11 17 5 2 11
11 13 20 1 10 6 21 11 25 4 4 5 2 0 -6 -6 -10 -4 -12 4 -7 7 4 11 17 9 29 -2
17 2 21 16 19 10 -2 15 1 12 6 -3 6 1 13 10 16 10 4 14 14 11 26 -3 10 1 24 9
31 8 6 14 8 14 5 0 -4 9 -2 21 5 14 7 19 17 16 30 -3 10 0 22 5 26 7 4 8 1 3
-8 -4 -8 8 4 28 26 20 22 34 46 32 53 -3 7 -1 11 4 7 13 -7 82 75 79 94 -2 9
3 15 11 13 18 -4 53 29 47 44 -3 7 3 18 12 26 11 9 14 10 8 1 -12 -22 9 -14
33 11 12 13 21 30 19 37 -2 8 3 13 11 11 18 -4 53 29 47 44 -3 7 3 18 12 26
11 9 14 10 8 1 -12 -22 9 -14 33 11 12 13 21 29 19 37 -2 8 6 13 21 13 13 1
29 9 35 19 9 15 7 20 -9 30 -11 7 -26 12 -34 12 -8 0 -15 10 -16 23 -3 36 -19
45 -39 23z"/>
<path d="M2512 5793 c-12 -2 -20 -7 -18 -11 2 -4 -10 -8 -27 -8 -17 -1 -33 -6
-35 -13 -2 -6 -9 -8 -15 -4 -7 4 -8 0 -4 -11 4 -11 3 -15 -4 -11 -15 10 -61
-4 -54 -15 4 -6 -1 -7 -11 -3 -13 5 -15 3 -9 -7 5 -9 4 -11 -4 -6 -18 12 -53
-4 -47 -20 3 -9 1 -12 -5 -9 -15 10 -61 -4 -54 -15 4 -6 -1 -7 -11 -3 -11 4
-15 3 -11 -4 5 -7 0 -9 -11 -6 -11 2 -26 -2 -34 -11 -9 -8 -18 -12 -22 -9 -3
4 -6 1 -6 -5 0 -7 -7 -12 -16 -12 -8 0 -12 -4 -9 -10 4 -6 -1 -7 -11 -3 -13 5
-15 3 -9 -7 5 -9 4 -11 -4 -6 -13 9 -71 -11 -71 -24 0 -4 -11 -11 -25 -14 -14
-4 -23 -11 -20 -16 4 -6 -1 -7 -11 -3 -11 4 -15 3 -11 -4 5 -7 0 -9 -11 -6
-11 2 -26 -2 -34 -11 -9 -8 -18 -12 -22 -9 -3 4 -6 1 -6 -5 0 -7 -7 -12 -16
-12 -8 0 -12 -4 -9 -10 4 -6 -1 -7 -11 -3 -11 4 -15 3 -11 -4 4 -7 0 -9 -10
-7 -21 5 -76 -39 -65 -51 4 -5 1 -5 -6 -1 -14 8 -54 -2 -48 -12 2 -4 -8 -8
-22 -9 -15 0 -28 -6 -30 -12 -2 -6 -9 -8 -15 -4 -7 4 -8 0 -4 -11 4 -10 3 -15
-3 -11 -14 9 -52 -4 -45 -16 3 -5 -2 -6 -11 -2 -12 4 -15 3 -10 -5 4 -8 2 -10
-8 -6 -20 8 -59 -15 -53 -31 3 -7 0 -12 -6 -12 -32 1 -48 -4 -42 -13 4 -6 -1
-7 -11 -3 -11 4 -15 3 -11 -4 5 -7 0 -9 -13 -6 -12 3 -20 0 -20 -6 0 -7 -5 -9
-12 -5 -7 5 -9 2 -5 -9 4 -12 2 -14 -10 -10 -12 5 -14 3 -8 -7 5 -9 4 -11 -4
-6 -15 10 -53 -3 -46 -15 4 -5 -4 -5 -19 1 -21 8 -27 6 -37 -11 -6 -12 -9 -30
-6 -40 3 -10 1 -17 -3 -14 -12 7 -23 -32 -14 -47 4 -7 4 -10 -1 -6 -12 12 -36
-19 -38 -51 -1 -16 -5 -27 -9 -25 -10 6 -21 -54 -12 -67 4 -7 3 -9 -3 -6 -11
7 -28 -20 -24 -37 1 -5 -3 -12 -9 -16 -6 -4 -12 -23 -13 -42 -1 -20 -6 -34
-11 -31 -5 3 -7 -8 -4 -25 2 -17 1 -29 -4 -26 -4 3 -11 -13 -14 -36 -4 -22
-10 -40 -14 -40 -11 0 -43 -187 -35 -201 5 -8 4 -10 -3 -5 -8 5 -12 -4 -12
-28 0 -20 -4 -36 -8 -36 -4 0 -6 -16 -4 -35 3 -23 0 -35 -8 -35 -8 0 -11 -17
-8 -54 1 -30 -1 -52 -5 -49 -5 3 -7 -24 -5 -60 1 -36 0 -63 -4 -60 -5 2 -8 -8
-8 -24 0 -15 4 -23 8 -17 4 6 17 14 30 18 12 4 20 12 17 17 -3 5 2 6 11 2 10
-4 15 -2 11 4 -3 5 4 9 16 9 15 -1 22 5 21 16 -1 11 4 14 14 11 11 -5 13 -3 7
7 -5 9 -4 11 4 6 15 -9 53 3 46 15 -3 5 0 6 8 3 8 -3 21 2 30 10 8 8 18 12 22
8 5 -4 5 1 2 10 -4 13 -2 15 10 11 12 -5 14 -3 8 7 -5 9 -4 11 4 6 16 -10 53
3 45 16 -4 7 -2 8 5 4 13 -8 64 28 53 38 -3 4 2 4 12 0 15 -6 17 -4 11 6 -5 9
-4 11 4 6 15 -9 53 3 46 15 -3 5 1 6 9 3 9 -4 16 -1 16 6 0 7 6 10 13 8 6 -3
21 4 32 15 11 11 14 16 6 12 -10 -5 -12 -4 -7 4 4 6 12 9 17 5 12 -7 69 15 69
26 0 4 11 11 25 14 14 4 23 11 20 16 -4 6 1 7 11 3 11 -4 15 -3 11 4 -5 7 1 9
15 5 13 -3 19 -1 15 5 -5 7 0 9 13 6 12 -3 20 0 20 7 0 7 6 10 13 7 15 -5 39
18 29 29 -4 4 -1 4 6 0 15 -9 65 1 58 12 -2 4 8 8 22 9 15 0 28 6 30 12 2 6
10 11 18 11 9 0 12 5 8 12 -4 7 -3 8 5 4 13 -8 53 2 47 12 -2 4 12 7 32 8 20
0 38 6 40 12 2 7 8 10 13 6 5 -3 9 -1 9 4 0 5 14 12 31 16 17 3 28 10 25 14
-3 5 6 7 21 4 14 -3 23 -1 20 4 -3 5 19 9 48 9 29 0 51 -3 49 -6 -6 -10 26
-20 38 -12 7 4 8 1 3 -7 -6 -10 -4 -12 8 -7 10 4 14 2 11 -7 -7 -17 30 -48 53
-44 12 2 17 -2 15 -14 -1 -9 7 -23 19 -32 20 -13 25 -13 60 11 22 14 39 28 39
30 0 2 -5 1 -12 -3 -7 -4 -8 -3 -4 5 4 6 12 9 17 5 13 -8 66 19 104 52 17 14
24 23 16 19 -9 -5 -12 -4 -7 3 4 6 13 9 20 6 7 -3 20 2 29 10 8 8 18 12 22 8
5 -4 5 1 2 10 -4 13 -2 15 10 11 12 -5 14 -3 8 7 -5 8 -4 11 3 7 14 -9 43 3
36 14 -3 5 2 6 10 3 9 -3 16 -2 16 4 0 5 11 13 25 16 14 4 23 11 20 16 -4 6 1
7 11 3 11 -4 15 -3 11 4 -5 7 1 9 15 5 12 -3 19 -1 15 4 -4 6 63 11 176 13
100 1 184 7 185 12 2 5 98 9 224 9 201 0 402 15 394 29 -2 3 24 7 57 9 34 1
64 7 68 14 4 6 16 8 28 5 12 -3 24 -1 27 4 3 5 16 9 30 9 14 0 23 4 20 8 -2 4
11 6 31 4 20 -3 33 -1 30 5 -3 5 10 7 30 5 20 -3 33 -1 30 4 -2 5 22 10 55 10
36 1 64 7 68 14 5 8 19 11 35 8 17 -4 25 -2 22 6 -3 8 7 10 31 8 26 -4 33 -1
27 8 -5 9 -4 11 3 6 14 -9 222 25 222 36 0 4 14 8 31 8 16 0 28 4 25 8 -2 4
11 6 31 4 20 -3 33 -1 30 5 -3 5 10 7 30 5 20 -3 33 -1 30 5 -3 5 10 7 30 5
22 -3 33 -1 30 5 -4 7 9 7 39 2 26 -5 51 -6 57 -2 6 4 7 1 2 -7 -6 -10 0 -12
23 -8 17 2 29 1 26 -3 -6 -10 61 -23 75 -14 6 3 9 0 5 -8 -5 -13 13 -18 239
-57 37 -7 67 -17 67 -22 0 -6 7 -8 15 -4 8 3 14 0 12 -7 -1 -7 8 -12 20 -11
12 0 19 -4 16 -9 -4 -6 1 -8 11 -4 9 4 15 3 12 -2 -7 -11 16 -42 34 -44 23 -4
41 -18 35 -27 -9 -15 15 -52 30 -47 18 7 35 -12 28 -32 -4 -9 -3 -13 1 -9 5 4
18 -2 29 -13 12 -11 27 -17 35 -14 7 2 10 0 7 -5 -3 -6 1 -13 10 -16 8 -4 30
-20 47 -36 18 -17 39 -27 49 -25 11 3 16 0 12 -8 -6 -16 33 -39 49 -29 7 5 8
3 3 -6 -6 -10 -4 -12 11 -6 10 4 15 4 11 0 -9 -10 54 -55 66 -47 6 3 7 1 3 -5
-7 -11 -2 -14 34 -16 8 -1 15 -10 15 -21 0 -11 6 -19 12 -18 7 2 12 -3 10 -10
-1 -6 6 -11 15 -11 10 1 14 -4 11 -12 -8 -20 15 -44 35 -36 25 9 42 28 34 37
-4 5 -1 5 6 1 16 -9 54 3 47 15 -3 5 2 6 11 2 12 -4 15 -3 10 5 -4 8 -2 10 7
6 8 -3 18 0 22 5 3 6 11 8 17 5 7 -5 9 -1 5 9 -4 12 -2 14 10 10 12 -5 14 -3
8 7 -5 9 -4 11 4 6 13 -8 53 2 47 12 -2 4 7 8 20 8 25 2 57 28 46 38 -3 4 2 4
12 0 15 -6 17 -4 11 6 -5 9 -4 11 4 6 15 -9 53 3 46 15 -3 5 0 6 8 3 8 -3 18
0 22 5 3 6 11 8 17 5 7 -5 9 -1 5 9 -4 12 -2 14 10 10 12 -5 14 -3 8 7 -5 9
-4 11 4 6 13 -8 53 2 47 12 -2 4 8 8 22 9 15 0 28 6 30 12 2 6 10 11 18 11 9
0 13 3 11 8 -3 4 17 8 44 10 27 1 61 7 75 12 18 7 23 7 18 -1 -4 -7 14 -10 59
-7 36 1 63 0 61 -4 -2 -3 20 -8 49 -10 l53 -3 -13 25 c-7 14 -13 33 -13 43 0
10 -4 16 -9 13 -4 -3 -6 6 -3 21 3 14 1 24 -4 20 -5 -3 -9 11 -10 30 0 19 -6
38 -14 43 -7 4 -9 13 -6 19 4 6 2 11 -3 11 -6 0 -11 9 -11 21 0 13 -4 18 -12
13 -7 -4 -8 -3 -4 5 9 13 -2 73 -12 67 -4 -2 -8 7 -8 20 -2 26 -28 57 -39 46
-5 -4 -5 -1 -1 6 10 17 -2 65 -14 57 -6 -4 -7 1 -3 11 4 11 2 15 -4 11 -6 -4
-8 3 -5 18 2 15 0 25 -7 25 -7 0 -9 5 -5 12 5 8 2 9 -10 5 -10 -4 -15 -3 -11
3 4 6 3 20 0 31 -6 17 -13 20 -40 17 -19 -2 -31 0 -28 5 3 5 -17 8 -45 6 -28
-2 -48 0 -45 5 3 5 -6 7 -20 4 -15 -3 -24 -1 -21 3 3 5 -2 9 -10 9 -9 0 -16 4
-16 8 0 11 -93 33 -146 35 -23 1 -41 4 -39 7 5 9 -22 29 -29 22 -4 -3 -10 -1
-14 5 -9 15 -147 37 -163 27 -8 -5 -9 -3 -4 6 6 10 1 12 -19 8 -15 -3 -24 -3
-22 0 10 10 -39 43 -56 39 -11 -3 -15 -1 -11 6 4 7 0 8 -13 3 -10 -4 -15 -4
-11 0 6 7 -34 42 -41 36 -2 -2 -10 4 -16 14 -8 10 -20 15 -29 11 -9 -3 -19 -1
-23 5 -5 7 -2 8 6 3 9 -6 11 -4 6 4 -5 7 -15 10 -23 7 -8 -3 -12 -2 -8 3 8 13
-25 43 -41 37 -7 -3 -18 3 -26 12 -12 16 -11 16 7 2 19 -14 19 -14 6 3 -7 9
-20 17 -27 17 -8 0 -14 4 -14 9 0 4 -15 3 -34 -3 -19 -6 -32 -15 -29 -20 3 -5
1 -6 -6 -2 -17 11 -73 -3 -65 -16 4 -7 2 -8 -5 -4 -20 13 -73 -4 -67 -20 3 -8
2 -12 -4 -9 -13 8 -61 -5 -54 -16 3 -5 -3 -6 -12 -2 -11 4 -15 2 -11 -4 4 -6
-3 -8 -20 -5 -18 3 -24 1 -19 -6 5 -8 2 -10 -8 -6 -9 4 -16 1 -16 -6 0 -8 -8
-10 -21 -7 -15 4 -19 2 -15 -8 3 -10 0 -12 -11 -8 -12 5 -14 3 -8 -7 5 -9 4
-11 -4 -6 -18 11 -63 -2 -55 -16 4 -7 3 -8 -5 -4 -19 12 -61 -2 -61 -20 0 -13
12 -15 69 -12 38 2 67 -1 64 -6 -3 -5 8 -7 25 -4 19 3 29 0 25 -5 -4 -6 3 -8
15 -5 12 4 20 2 16 -3 -3 -5 2 -9 10 -9 9 0 16 -4 16 -8 0 -12 68 -34 81 -26
8 5 9 3 4 -6 -6 -10 -4 -12 9 -7 11 4 15 3 11 -4 -4 -6 2 -13 14 -16 12 -3 21
-10 21 -15 0 -6 7 -7 16 -4 8 3 12 2 9 -3 -7 -12 31 -24 46 -15 7 4 9 3 6 -3
-4 -6 5 -14 19 -17 15 -4 32 -13 40 -20 32 -32 21 -37 -103 -39 -66 -1 -119 2
-116 6 3 5 -22 7 -55 5 -33 -1 -58 1 -55 6 3 4 -12 7 -34 5 -27 -3 -39 -1 -36
7 2 7 -7 9 -27 6 -19 -3 -30 0 -30 8 0 8 -12 11 -34 8 -20 -2 -32 0 -29 5 3 6
-10 8 -30 5 -20 -2 -33 0 -30 5 3 5 -14 8 -40 6 -25 -2 -43 0 -39 5 3 5 -39 6
-104 3 -118 -8 -166 -15 -160 -26 3 -4 -11 -5 -30 -3 -22 3 -34 0 -34 -8 0 -8
-11 -11 -30 -8 -20 3 -29 1 -27 -7 3 -7 -7 -9 -31 -7 -19 3 -32 0 -29 -4 3 -5
-13 -8 -35 -6 -23 3 -38 0 -35 -5 3 -5 -10 -7 -30 -5 -20 3 -33 1 -30 -4 2 -5
-20 -10 -51 -11 -31 -1 -58 -6 -60 -12 -2 -6 -10 -11 -18 -11 -9 0 -12 -5 -8
-12 4 -7 3 -8 -4 -4 -13 8 -64 -3 -58 -13 2 -3 -12 -6 -31 -7 -19 0 -38 -6
-43 -14 -5 -7 -17 -11 -30 -7 -14 4 -20 2 -17 -7 3 -7 -4 -12 -17 -12 -83 -1
-127 -5 -123 -11 3 -5 -17 -8 -43 -8 -26 0 -46 4 -43 9 3 5 -10 7 -30 4 -20
-2 -33 0 -30 5 3 6 -7 8 -25 5 -22 -3 -29 -1 -25 9 4 9 0 11 -11 7 -9 -4 -16
-1 -16 6 0 7 -8 10 -20 7 -13 -3 -18 -1 -13 6 4 6 -2 8 -15 5 -14 -4 -20 -2
-15 5 4 6 -2 8 -15 5 -14 -4 -20 -2 -15 5 4 6 0 8 -10 4 -12 -4 -14 -2 -10 10
4 10 2 14 -4 10 -6 -4 -13 -2 -15 4 -2 7 -18 12 -35 13 -17 0 -29 5 -25 10 3
5 -5 7 -16 4 -14 -4 -20 -2 -15 5 4 6 0 8 -10 4 -9 -3 -19 -1 -23 5 -4 7 -3 8
4 4 8 -4 10 -2 6 7 -3 9 -13 13 -25 10 -11 -3 -19 0 -19 7 0 7 -7 10 -16 6 -8
-3 -12 -2 -9 3 7 12 -31 24 -46 15 -8 -5 -9 -3 -4 6 6 10 4 12 -9 7 -9 -4 -15
-3 -12 1 7 12 -52 44 -66 36 -7 -5 -8 -3 -3 6 6 10 3 12 -13 8 -14 -4 -20 -2
-15 5 4 7 0 8 -13 3 -10 -4 -15 -4 -12 0 10 9 -15 32 -29 27 -7 -3 -13 0 -13
7 0 7 -7 10 -16 6 -8 -3 -12 -2 -9 3 6 11 -31 25 -44 16 -5 -3 -13 0 -17 6 -5
8 -3 9 7 4 8 -4 4 2 -9 15 -13 12 -34 23 -47 24 -13 0 -21 4 -19 8 6 10 -34
20 -47 12 -8 -5 -9 -3 -4 6 6 10 4 12 -8 7 -12 -4 -14 -2 -10 10 4 11 2 14 -5
9 -7 -4 -12 -2 -12 5 0 6 -8 9 -20 6 -13 -3 -18 -1 -13 6 4 7 0 8 -11 4 -9 -4
-15 -3 -12 2 9 14 -22 34 -43 28 -13 -3 -18 -1 -15 8 6 15 -30 30 -47 19 -8
-5 -9 -3 -4 6 6 10 4 12 -9 7 -9 -4 -14 -3 -11 2 7 12 -31 25 -45 16 -5 -3 -7
0 -4 9 7 17 -31 40 -52 32 -10 -4 -12 -2 -8 6 5 8 2 9 -10 5 -9 -4 -14 -3 -11
2 7 12 -31 25 -45 16 -5 -3 -7 0 -4 9 7 17 -31 40 -52 32 -10 -4 -12 -2 -8 6
5 8 1 9 -12 4 -10 -4 -15 -4 -12 0 11 10 -40 46 -53 38 -7 -4 -9 -3 -6 3 5 8
-38 37 -46 32 -1 -1 -12 -4 -25 -6z"/>
<path d="M4832 4743 c-12 -2 -20 -7 -18 -11 2 -4 -21 -8 -52 -9 -31 -1 -58 -6
-60 -12 -2 -6 -17 -11 -33 -11 -20 0 -28 -4 -23 -12 4 -7 3 -8 -4 -4 -14 8
-104 -3 -98 -13 2 -3 -21 -7 -51 -8 -32 -1 -59 -7 -63 -14 -5 -7 -19 -10 -35
-7 -17 4 -25 2 -22 -6 3 -8 -7 -10 -31 -8 -19 3 -32 1 -29 -5 3 -5 -10 -7 -30
-5 -25 3 -34 1 -29 -7 4 -7 1 -9 -8 -5 -18 7 -156 -14 -171 -26 -8 -7 -145
-30 -176 -30 -6 0 -8 -3 -6 -7 3 -5 -24 -9 -60 -9 -40 -1 -68 -6 -73 -14 -5
-8 -24 -11 -54 -9 -29 3 -45 0 -42 -6 2 -6 -11 -9 -35 -7 -22 2 -39 7 -39 11
0 3 -162 6 -360 6 -240 0 -359 -3 -356 -10 2 -6 -12 -9 -37 -6 -30 2 -38 0
-32 -9 5 -9 4 -11 -4 -6 -14 9 -73 -3 -66 -13 2 -5 -6 -6 -18 -4 -13 3 -32 -4
-46 -16 -13 -12 -30 -21 -38 -21 -8 0 -11 -4 -8 -10 4 -6 -1 -7 -11 -3 -11 4
-15 3 -11 -4 5 -7 0 -9 -11 -6 -11 2 -26 -2 -34 -11 -9 -8 -19 -12 -23 -8 -5
4 -5 -1 -2 -11 4 -11 3 -16 -4 -12 -13 9 -61 -3 -55 -13 2 -4 -10 -8 -27 -8
-16 -1 -35 -8 -41 -16 -6 -8 -21 -18 -34 -22 -12 -4 -20 -12 -17 -17 3 -5 -2
-6 -11 -2 -11 4 -15 3 -11 -4 5 -7 0 -9 -11 -6 -11 2 -26 -2 -34 -11 -9 -8
-18 -12 -22 -9 -3 4 -6 1 -6 -5 0 -7 -7 -12 -16 -12 -8 0 -12 -4 -9 -10 4 -6
-1 -7 -11 -3 -13 5 -15 3 -9 -7 5 -8 4 -11 -3 -6 -15 9 -63 -4 -56 -15 3 -5
-2 -6 -10 -3 -9 4 -16 1 -16 -6 0 -8 -8 -10 -21 -7 -14 4 -19 1 -16 -7 3 -8
-5 -11 -29 -8 -26 3 -35 10 -43 33 -7 22 -7 28 1 23 7 -5 9 -2 5 9 -4 11 -2
14 8 11 15 -6 39 29 27 40 -3 4 2 4 12 0 15 -6 17 -4 11 6 -5 9 -4 11 3 6 15
-9 64 24 59 39 -3 6 4 11 15 11 12 -1 23 5 25 12 3 6 -2 12 -11 12 -9 0 -16 3
-16 8 0 4 -13 7 -30 7 -28 0 -35 -6 -31 -28 1 -5 -3 -5 -9 -2 -17 11 -62 -4
-54 -17 4 -7 3 -8 -4 -4 -6 4 -22 1 -34 -6 -13 -7 -27 -11 -32 -10 -5 2 -6 -4
-3 -12 4 -11 1 -13 -10 -9 -12 5 -14 3 -8 -7 5 -9 4 -11 -4 -6 -16 10 -64 -2
-56 -13 3 -5 -4 -7 -15 -4 -12 3 -20 0 -20 -6 0 -7 -5 -9 -12 -5 -8 5 -9 2 -5
-10 4 -11 3 -15 -4 -11 -15 10 -61 -4 -54 -15 4 -6 -1 -7 -11 -3 -11 4 -15 2
-11 -4 4 -6 -3 -8 -17 -6 -12 3 -29 -2 -37 -9 -8 -8 -27 -18 -42 -22 -17 -4
-25 -11 -21 -18 4 -7 3 -8 -5 -4 -17 11 -73 -3 -65 -16 4 -7 2 -8 -5 -4 -20
13 -64 -3 -57 -20 3 -9 2 -12 -5 -9 -14 9 -81 -4 -75 -14 3 -4 -6 -6 -21 -3
-14 3 -24 1 -20 -4 3 -5 -11 -10 -31 -11 -19 -1 -38 -6 -41 -11 -3 -5 -25 -13
-49 -17 -23 -4 -40 -10 -37 -14 2 -5 -7 -6 -22 -3 -14 3 -23 1 -20 -4 3 -5 -9
-9 -26 -10 -58 -2 -137 -17 -137 -25 0 -5 -11 -9 -25 -9 l-25 0 0 -106 c0 -58
3 -103 8 -101 4 3 8 -6 8 -20 2 -29 4 -32 32 -36 12 -2 25 -7 29 -12 5 -4 2
-5 -4 -1 -28 16 -10 -3 26 -29 23 -15 45 -24 52 -19 8 5 9 3 4 -6 -6 -10 -3
-12 13 -8 14 4 20 2 15 -5 -4 -7 0 -8 11 -4 10 4 15 3 11 -3 -3 -5 10 -12 30
-16 19 -3 35 -11 35 -16 0 -6 15 -8 34 -6 19 2 32 0 29 -5 -3 -5 12 -8 35 -5
22 2 38 0 36 -4 -6 -9 77 -11 100 -2 9 3 14 9 11 14 -2 4 7 5 20 2 15 -2 25 0
25 7 0 7 5 9 12 5 7 -5 9 -2 5 9 -4 12 -2 14 10 10 10 -4 14 -2 10 4 -4 6 3 8
20 5 19 -4 24 -2 18 8 -5 8 -4 11 2 7 14 -9 126 13 134 26 10 14 297 11 314
-3 7 -6 36 -12 63 -13 28 -1 47 -6 44 -11 -3 -5 7 -7 21 -4 16 3 24 1 20 -5
-4 -6 2 -8 15 -5 14 4 20 2 16 -4 -5 -7 2 -9 19 -6 20 4 24 2 19 -11 -3 -9 -2
-13 3 -9 4 4 14 0 22 -8 9 -8 22 -13 30 -10 9 4 11 2 7 -6 -5 -8 -2 -9 10 -5
9 4 15 3 12 -2 -3 -5 1 -12 10 -15 21 -8 26 -8 21 2 -3 4 45 6 106 4 130 -4
166 1 194 28 12 10 24 16 28 12 4 -4 5 2 3 13 -2 14 2 19 14 17 23 -4 119 59
111 71 -3 6 -1 7 6 3 15 -10 73 3 66 15 -4 5 1 6 9 3 9 -4 16 -1 16 6 0 8 8
10 21 7 13 -4 19 -1 16 6 -3 7 6 12 22 13 85 1 122 5 117 12 -3 4 30 4 72 0
42 -5 89 -7 104 -5 15 2 25 0 23 -4 -3 -4 12 -10 33 -14 20 -4 40 -11 43 -16
3 -5 19 -11 36 -12 17 -1 29 -5 27 -9 -6 -10 34 -20 48 -12 7 4 10 4 6 -1 -11
-12 44 -56 67 -53 11 2 20 -3 21 -9 1 -7 2 -18 3 -24 0 -5 5 -8 11 -4 5 3 28
-15 51 -40 23 -25 44 -43 47 -40 10 10 30 -16 25 -35 -4 -16 21 -40 47 -44 3
-1 4 -7 2 -13 -5 -20 30 -65 45 -59 8 3 11 1 8 -4 -9 -14 4 -52 16 -45 5 3 6
-2 2 -11 -4 -11 -3 -15 4 -11 7 5 9 0 6 -13 -3 -12 0 -20 6 -20 7 0 9 -5 5
-12 -5 -8 -2 -9 9 -5 19 7 33 -10 29 -35 -2 -9 5 -22 15 -30 10 -7 23 -22 30
-33 6 -11 16 -19 22 -18 6 2 8 -4 4 -14 -4 -11 -3 -14 5 -9 7 4 10 2 7 -7 -7
-15 29 -60 39 -50 4 4 4 -1 0 -11 -5 -12 -4 -17 3 -13 6 4 8 -3 5 -20 -3 -16
-1 -24 5 -20 6 4 11 1 10 -6 0 -6 1 -21 2 -32 1 -19 2 -19 12 -2 5 9 8 21 5
26 -3 5 2 15 12 22 16 13 16 12 2 -6 -15 -20 -14 -20 8 -1 12 11 22 29 22 42
0 12 5 24 11 26 5 2 11 26 12 55 1 28 6 48 11 45 5 -3 7 5 4 16 -4 14 -2 20 4
16 7 -5 9 2 6 19 -3 17 -1 24 5 20 6 -4 8 0 4 10 -4 12 -2 14 10 10 11 -4 14
-2 9 5 -4 7 -2 12 5 12 6 0 9 8 6 20 -3 11 0 23 5 27 7 4 8 1 3 -7 -6 -9 -4
-11 4 -6 7 5 10 15 7 23 -3 8 -1 11 4 8 6 -3 13 2 17 12 3 10 13 22 20 26 7 5
10 13 7 19 -4 6 -3 8 3 5 12 -8 66 47 56 57 -4 4 1 4 11 0 15 -6 17 -4 11 6
-5 9 -4 11 4 6 13 -8 64 28 53 38 -3 4 2 4 12 0 13 -5 17 -4 13 3 -5 7 1 9 15
5 11 -3 19 -1 16 4 -3 5 15 10 41 12 25 1 48 7 49 12 4 12 139 13 144 2 7 -18
67 -22 83 -6 8 9 13 19 10 24 -7 12 24 34 49 35 14 0 21 6 21 20 0 14 6 19 21
17 11 -1 33 9 48 23 15 14 30 25 35 25 4 0 16 7 27 16 10 8 12 12 4 8 -8 -4
-12 -3 -8 1 5 5 20 10 35 11 15 2 29 8 31 14 2 5 9 7 15 3 7 -4 8 0 4 11 -4
11 -3 15 4 11 16 -11 61 4 53 17 -4 7 -3 8 5 4 14 -9 111 14 111 26 0 4 22 10
50 14 27 4 48 9 46 13 -5 8 275 -5 305 -14 13 -4 27 -12 30 -17 3 -5 19 -10
36 -11 17 -1 29 -5 27 -9 -6 -10 34 -20 47 -12 8 5 9 3 4 -6 -6 -10 -4 -12 8
-7 12 4 14 2 10 -11 -3 -9 -3 -14 2 -10 4 4 19 -2 33 -12 23 -19 79 -29 69
-12 -3 4 31 6 75 4 51 -2 78 0 74 6 -4 6 2 8 14 5 12 -3 20 0 20 6 0 7 5 9 12
5 8 -5 9 -2 5 10 -4 9 -3 15 1 12 5 -3 42 -1 84 3 47 4 74 3 71 -3 -3 -5 5 -7
20 -4 20 4 24 2 19 -11 -3 -9 -2 -13 3 -9 4 4 14 0 23 -8 11 -12 35 -15 107
-12 51 2 91 0 89 -3 -5 -9 244 -21 258 -13 7 4 8 3 4 -4 -5 -8 5 -12 31 -12
22 0 43 -4 49 -10 5 -5 44 -11 86 -12 42 -2 74 -6 71 -10 -2 -5 9 -8 25 -8 22
0 31 6 36 23 8 32 7 429 -1 424 -5 -3 -7 29 -5 70 2 41 0 73 -5 70 -4 -3 -6
19 -5 49 3 37 0 54 -8 54 -8 0 -11 12 -8 35 2 19 0 35 -4 35 -4 0 -8 6 -8 14
0 15 -50 26 -122 26 -27 0 -48 5 -48 10 0 16 -149 13 -165 -4 -8 -7 -11 -17
-7 -21 4 -5 2 -5 -5 -1 -14 8 -65 -3 -59 -13 2 -3 -12 -6 -31 -7 -19 0 -38 -5
-41 -11 -4 -6 -19 -15 -35 -18 -15 -4 -24 -12 -20 -18 3 -6 1 -7 -6 -3 -14 9
-64 -1 -57 -12 2 -4 -12 -7 -31 -8 -19 0 -38 -5 -41 -11 -4 -6 -22 -14 -40
-18 -19 -4 -30 -11 -26 -17 4 -7 2 -8 -5 -4 -15 10 -64 -2 -57 -13 3 -4 -6 -6
-19 -3 -16 3 -25 0 -25 -8 0 -7 -7 -10 -15 -6 -8 3 -15 1 -15 -4 0 -6 -9 -10
-21 -10 -11 0 -18 -4 -15 -9 4 -5 -4 -7 -16 -3 -13 3 -19 1 -15 -5 4 -6 -4 -8
-20 -5 -14 3 -24 1 -20 -4 3 -5 -11 -10 -31 -11 -19 -1 -38 -6 -41 -11 -3 -5
-23 -12 -44 -16 -21 -4 -35 -11 -33 -15 3 -4 -6 -6 -21 -3 -14 3 -23 1 -20 -4
3 -5 -16 -9 -41 -9 l-47 0 1 40 c1 32 5 40 20 40 11 0 18 6 16 13 -1 8 2 11 6
8 5 -3 16 2 25 12 14 15 14 19 -4 41 -10 13 -19 20 -19 17 0 -4 -11 1 -25 10
-13 8 -30 12 -36 8 -7 -4 -9 -3 -5 4 7 11 -23 25 -45 20 -9 -2 -13 4 -11 16 2
11 -1 15 -7 11 -6 -3 -11 -1 -11 6 0 6 -8 9 -20 6 -13 -3 -18 -1 -13 6 4 6 0
8 -10 4 -10 -4 -16 -2 -14 6 1 7 -8 12 -20 11 -13 0 -21 1 -19 4 10 9 -34 44
-48 39 -9 -3 -18 -1 -22 5 -5 7 -2 8 6 3 9 -6 11 -4 6 4 -5 7 -15 10 -23 7 -8
-3 -11 -1 -8 4 3 6 -1 13 -11 17 -9 3 -34 25 -56 49 -22 24 -43 42 -46 41 -4
-1 -8 3 -10 8 -7 21 -47 55 -60 50 -8 -3 -10 0 -6 7 5 7 -1 9 -19 6 -16 -3
-24 -1 -20 4 3 6 -14 9 -45 7 -27 -2 -48 0 -45 5 3 5 -10 7 -30 4 -20 -2 -33
0 -31 4 3 4 -6 8 -20 8 -14 0 -26 4 -26 9 0 8 -79 23 -137 25 -17 1 -29 4 -26
9 4 7 -55 8 -95 0z m629 -210 c13 -16 12 -17 -3 -4 -10 7 -18 15 -18 17 0 8 8
3 21 -13z m397 -258 c-3 -3 -9 2 -12 12 -6 14 -5 15 5 6 7 -7 10 -15 7 -18z
m-2197 -692 c13 -16 12 -17 -3 -4 -17 13 -22 21 -14 21 2 0 10 -8 17 -17z"/>
<path d="M5320 3693 c-79 -15 -115 -33 -67 -33 15 0 27 4 27 9 0 8 128 26 240
34 25 2 7 4 -40 4 -47 1 -119 -6 -160 -14z"/>
<path d="M5205 3660 c-3 -5 -1 -10 4 -10 6 0 11 5 11 10 0 6 -2 10 -4 10 -3 0
-8 -4 -11 -10z"/>
<path d="M3054 3632 c3 -5 -9 -6 -26 -4 -17 3 -28 1 -25 -4 3 -5 -13 -9 -35
-10 -22 0 -42 -5 -46 -10 -4 -6 -25 -18 -47 -27 l-40 -17 117 3 c64 1 114 -1
111 -5 -2 -5 16 -8 41 -8 24 0 46 -4 48 -10 2 -5 40 -11 84 -12 45 -2 79 -7
77 -12 -3 -4 13 -7 35 -4 22 2 39 0 36 -3 -2 -4 15 -9 38 -12 24 -3 44 -10 46
-15 2 -6 12 -8 22 -5 11 3 20 0 20 -6 0 -6 5 -11 12 -11 6 0 1 11 -12 26 -18
18 -31 23 -47 19 -13 -3 -23 -1 -23 5 0 6 5 8 11 4 7 -4 10 -2 8 5 -3 7 -9 13
-14 13 -6 1 -15 8 -21 16 -7 9 -18 13 -28 9 -11 -5 -15 -3 -10 5 5 8 2 9 -10
5 -9 -4 -14 -3 -11 2 3 5 -5 13 -17 17 -13 4 -26 11 -30 17 -3 6 -22 11 -41
11 -19 1 -33 5 -30 10 3 5 -10 7 -30 4 -20 -2 -33 0 -31 4 3 4 -27 8 -66 8
-39 0 -69 -4 -66 -8z"/>
<path d="M1767 3583 c-15 -2 -25 -9 -22 -14 3 -5 -1 -6 -9 -3 -8 3 -23 1 -33
-5 -13 -7 48 -10 217 -10 172 0 230 2 217 10 -11 6 -29 9 -43 6 -14 -2 -21 0
-17 6 3 6 -8 8 -30 5 -20 -2 -33 0 -31 4 5 8 -197 9 -249 1z"/>
<path d="M4809 3573 c-13 -16 -12 -17 4 -4 9 7 17 15 17 17 0 8 -8 3 -21 -13z"/>
<path d="M2160 3540 c0 -5 9 -10 21 -10 11 0 17 5 14 10 -3 6 -13 10 -21 10
-8 0 -14 -4 -14 -10z"/>
<path d="M6084 3511 c4 -6 15 -10 24 -9 12 2 16 -3 14 -17 -2 -11 -1 -17 4
-13 4 5 13 -1 21 -12 15 -22 39 -28 27 -7 -4 6 2 3 14 -7 23 -20 30 -32 12
-21 -5 3 -10 2 -10 -4 0 -13 38 -34 49 -27 5 3 15 -2 22 -12 12 -15 12 -16 -1
-7 -9 6 -2 -2 15 -17 16 -15 36 -25 43 -23 7 3 10 1 7 -4 -7 -12 31 -24 46
-15 8 5 9 3 4 -6 -6 -10 -4 -12 9 -7 9 4 15 3 12 -1 -10 -16 13 -35 42 -36 17
0 28 -4 26 -8 -7 -11 43 -21 57 -12 8 4 9 3 5 -4 -5 -8 7 -14 34 -18 22 -4 40
-11 40 -16 0 -6 13 -8 29 -6 17 3 27 0 24 -5 -3 -5 11 -8 35 -5 23 2 38 -1 35
-6 -4 -5 51 -7 135 -4 156 6 176 13 170 59 -3 16 0 25 5 22 6 -3 8 7 5 25 -2
17 -1 29 4 26 4 -3 8 11 8 31 l0 36 -84 -3 c-46 -2 -82 0 -79 5 2 4 -12 7 -31
7 -20 0 -36 4 -36 8 0 5 -13 7 -30 4 -19 -3 -30 0 -30 8 0 8 -11 11 -29 8 -17
-2 -28 -1 -25 3 6 10 -53 22 -67 13 -7 -4 -9 -3 -6 3 4 6 -5 14 -19 17 -15 4
-33 14 -42 22 -8 9 -23 13 -34 11 -10 -3 -16 -2 -13 3 11 17 -38 23 -239 28
-157 3 -207 2 -202 -7z"/>
<path d="M990 3475 c0 -19 5 -35 11 -35 7 0 10 -12 7 -30 -4 -29 -3 -30 34
-30 22 0 37 3 35 8 -3 4 11 7 30 8 43 1 63 25 30 37 -12 4 -30 6 -39 3 -10 -2
-16 0 -13 5 3 4 -6 11 -20 15 -14 3 -25 10 -25 14 0 4 -11 15 -25 24 l-25 16
0 -35z"/>
<path d="M5707 3503 c-32 -2 -56 -7 -53 -11 2 -4 -32 -8 -77 -9 -49 -1 -83 -7
-87 -14 -5 -7 -21 -10 -39 -7 -21 3 -30 1 -28 -6 3 -8 -9 -10 -36 -7 -30 2
-38 0 -32 -9 5 -9 4 -11 -4 -6 -6 4 -31 4 -54 0 -23 -4 -35 -9 -27 -12 8 -3
18 -9 21 -14 3 -5 15 -10 27 -11 11 0 18 -5 15 -11 -4 -5 1 -7 11 -3 9 4 15 3
12 -2 -13 -21 45 -34 123 -28 78 6 79 6 77 -17 -1 -17 -6 -22 -20 -18 -11 3
-17 1 -13 -4 3 -6 -9 -8 -30 -6 -20 3 -33 1 -30 -4 3 -5 -8 -9 -23 -9 -15 0
-26 3 -24 6 5 9 -56 20 -70 12 -6 -3 -8 -3 -4 2 11 11 -33 47 -49 40 -9 -3
-11 0 -7 7 5 8 2 9 -9 5 -9 -3 -19 -1 -23 5 -5 7 -2 8 6 3 9 -5 11 -4 6 3 -4
7 -16 12 -27 12 -10 0 -19 3 -19 8 0 4 -11 7 -25 7 -14 0 -25 -3 -25 -7 0 -5
-9 -8 -21 -8 -11 0 -18 -4 -15 -9 3 -4 -6 -6 -21 -3 -14 3 -24 1 -20 -4 3 -5
-10 -9 -29 -10 -19 0 -37 -4 -41 -7 -9 -10 29 -48 43 -43 7 3 18 -3 26 -12 9
-11 10 -14 1 -8 -20 12 -15 -9 7 -29 11 -10 23 -15 27 -12 11 11 32 -14 26
-30 -4 -10 -2 -14 4 -10 6 4 14 0 17 -9 3 -9 13 -14 20 -11 8 3 20 -2 28 -11
12 -15 11 -16 -4 -3 -10 7 -18 11 -18 8 0 -12 74 -56 83 -50 6 3 7 1 3 -5 -7
-11 23 -25 45 -20 9 2 13 -4 11 -16 -2 -12 1 -15 8 -11 7 4 16 1 21 -6 5 -8
26 -14 52 -14 25 0 43 -3 40 -7 -2 -5 12 -8 32 -8 20 0 34 4 31 8 -3 5 8 6 24
4 16 -2 43 3 61 12 17 9 36 13 42 9 6 -4 8 0 4 10 -4 12 -2 14 10 10 12 -5 14
-3 8 7 -5 8 -4 11 3 7 15 -10 43 3 35 16 -3 5 -2 7 4 4 13 -8 66 47 56 58 -5
4 -2 5 5 1 19 -11 15 52 -5 72 -10 11 -33 17 -60 17 -23 0 -45 5 -47 11 -5 14
128 13 141 0 4 -5 3 -6 -4 -2 -17 9 -16 0 1 -27 15 -23 15 -102 1 -115 -5 -4
-5 0 -1 8 4 8 -1 4 -12 -9 -10 -13 -30 -33 -43 -43 -13 -11 -18 -16 -10 -12 9
4 12 3 7 -4 -4 -6 -13 -9 -20 -6 -8 3 -17 0 -21 -5 -3 -6 -11 -8 -17 -5 -7 5
-9 1 -5 -9 4 -12 2 -14 -10 -10 -10 4 -14 2 -10 -4 4 -6 -3 -8 -20 -5 -14 3
-23 1 -20 -4 3 -5 -9 -9 -25 -9 -17 0 -33 -5 -35 -11 -2 -6 10 -8 32 -6 21 3
35 0 35 -7 0 -7 39 -11 120 -11 80 0 120 4 120 11 0 7 18 10 49 7 46 -3 78 11
63 28 -4 4 -1 4 6 0 18 -10 54 3 46 17 -4 7 -4 9 1 5 11 -10 45 10 45 27 0 8
5 15 10 15 6 0 10 12 10 26 0 20 -4 25 -18 22 -12 -3 -18 1 -18 11 0 11 10 16
32 16 23 0 30 -4 26 -14 -3 -8 -1 -12 4 -9 5 4 9 -11 9 -32 0 -21 -2 -37 -4
-35 -5 6 -46 -47 -46 -59 0 -5 -9 -10 -20 -12 -11 -2 -21 -8 -23 -13 -2 -6
-10 -11 -18 -11 -9 0 -13 -4 -10 -9 4 -5 -4 -7 -16 -3 -13 3 -19 1 -15 -5 4
-6 1 -11 -6 -10 -30 1 -48 -4 -43 -12 3 -4 -6 -6 -19 -3 -16 3 -25 0 -25 -8 0
-7 -8 -10 -20 -7 -11 3 -20 1 -20 -4 0 -5 -16 -9 -36 -9 -19 0 -33 -3 -31 -7
3 -5 -44 -8 -103 -8 -59 0 -106 3 -104 6 2 4 -25 10 -61 14 -36 3 -65 11 -65
17 0 6 -11 8 -25 6 -13 -3 -22 -2 -20 2 7 11 -43 22 -57 14 -7 -5 -8 -2 -3 6
6 10 3 12 -13 8 -12 -4 -20 -2 -16 3 3 5 -2 9 -10 9 -9 0 -16 4 -16 9 0 12
-57 34 -69 27 -5 -4 -13 -1 -17 5 -5 8 -3 9 6 4 9 -6 11 -4 6 4 -5 7 -14 10
-21 7 -7 -2 -12 3 -11 12 1 11 -7 17 -21 17 -13 0 -28 7 -35 15 -11 12 -10 12
2 5 9 -6 0 4 -19 20 -19 17 -40 30 -45 30 -6 1 -10 6 -9 12 2 11 -44 59 -55
57 -4 -1 -6 1 -5 5 1 5 -15 24 -35 44 -28 27 -43 35 -59 31 -13 -4 -20 -11
-16 -17 3 -6 1 -7 -6 -3 -17 11 -53 -4 -47 -19 3 -10 0 -12 -11 -8 -10 4 -14
2 -9 -5 3 -6 1 -14 -5 -18 -8 -5 -9 -3 -4 6 6 10 4 12 -9 7 -10 -4 -20 -7 -22
-7 -3 0 -2 -4 1 -10 4 -6 -1 -7 -11 -3 -13 5 -15 3 -9 -7 5 -9 4 -11 -4 -6
-13 8 -64 -28 -53 -38 3 -4 -1 -4 -10 -1 -20 8 -71 -23 -65 -40 3 -6 -4 -11
-17 -11 -11 1 -20 -4 -19 -11 2 -7 -3 -10 -11 -7 -8 3 -17 0 -22 -7 -5 -8 -3
-10 7 -4 8 5 11 4 6 -1 -4 -4 -18 -9 -30 -9 -14 0 -22 -6 -21 -17 1 -10 -4
-14 -13 -11 -10 4 -14 0 -11 -13 2 -13 -2 -18 -14 -16 -16 3 -43 -30 -32 -40
2 -3 -2 -11 -11 -18 -8 -7 -15 -9 -15 -6 0 4 -9 2 -21 -4 -11 -7 -18 -18 -15
-25 3 -8 0 -17 -6 -21 -7 -5 -8 -2 -3 6 6 9 4 11 -4 6 -7 -5 -10 -15 -7 -23 3
-8 2 -12 -3 -9 -11 7 -53 -38 -49 -55 2 -7 -4 -13 -12 -14 -9 0 -15 -9 -14
-22 0 -13 -4 -19 -12 -16 -15 5 -46 -38 -42 -58 2 -9 -4 -13 -16 -11 -11 2
-15 -1 -11 -7 3 -6 -1 -18 -10 -27 -9 -9 -14 -23 -11 -31 3 -8 2 -12 -3 -9 -5
3 -12 -1 -15 -10 -9 -22 -7 -46 2 -40 4 2 6 -11 4 -31 -3 -20 -1 -33 4 -30 5
2 10 -29 12 -71 1 -42 6 -78 11 -81 9 -6 28 -402 27 -562 -1 -62 -5 -95 -11
-93 -7 3 -9 -11 -7 -36 2 -22 -1 -46 -7 -53 -6 -7 -12 -38 -13 -69 -2 -31 -7
-54 -12 -51 -5 3 -7 -10 -4 -30 2 -21 0 -33 -6 -30 -5 3 -7 -5 -4 -20 3 -15 1
-24 -3 -21 -5 3 -9 -4 -9 -15 0 -11 -4 -22 -9 -25 -5 -3 -7 -15 -4 -26 3 -12
0 -20 -7 -20 -8 0 -11 -9 -8 -25 3 -14 1 -22 -5 -18 -5 3 -8 -12 -6 -40 2 -25
1 -43 -3 -40 -5 2 -8 -26 -8 -62 0 -37 4 -64 9 -61 5 4 7 -2 4 -12 -2 -11 2
-26 11 -34 8 -9 12 -18 9 -22 -4 -3 -2 -6 4 -6 6 0 14 -11 17 -25 4 -14 11
-23 16 -20 6 4 7 -1 3 -11 -4 -12 -3 -15 5 -10 7 4 10 2 7 -7 -6 -13 27 -60
40 -57 4 1 10 -2 13 -6 4 -4 1 -4 -5 0 -16 9 -16 1 -3 -25 9 -15 22 -19 66
-19 30 0 53 3 51 8 -3 4 36 8 87 10 50 1 93 7 94 12 2 6 13 10 25 10 39 0 147
22 142 29 -2 4 10 5 27 3 18 -3 28 -1 25 5 -3 5 6 8 24 5 16 -2 29 0 29 6 0 5
20 13 45 17 25 3 43 10 40 14 -2 5 7 6 22 3 17 -3 24 -1 19 6 -4 6 2 8 16 4
11 -3 19 -1 16 4 -4 5 10 9 30 10 20 0 38 6 40 12 2 7 13 12 23 12 13 0 18 4
13 12 -4 7 -3 8 5 4 13 -9 73 2 67 12 -2 4 10 8 27 9 18 2 33 7 35 13 2 6 8 8
13 4 5 -3 9 -1 9 5 0 5 14 12 30 16 18 4 27 11 24 17 -5 7 -2 8 5 4 13 -9 71
11 71 24 0 4 11 11 25 14 14 4 23 11 20 16 -4 6 1 7 11 3 11 -4 15 -3 11 4 -5
7 0 9 11 6 11 -2 26 3 35 12 9 8 18 15 19 13 7 -6 47 29 41 36 -4 4 1 4 11 0
13 -5 17 -4 12 4 -5 8 -2 10 9 6 16 -7 59 29 48 39 -3 3 3 3 14 1 10 -3 27 2
38 11 11 9 14 13 6 9 -9 -4 -12 -3 -7 4 4 6 13 9 22 5 8 -3 26 6 42 23 15 15
21 24 13 19 -9 -5 -12 -4 -7 3 4 6 13 9 21 5 9 -3 37 11 65 33 46 35 66 55 38
38 -7 -4 -8 -3 -4 5 4 6 11 9 16 6 4 -3 19 4 31 15 13 11 20 19 15 20 -5 0 -3
6 3 14 7 8 20 12 30 9 18 -5 49 23 38 34 -11 10 13 32 29 26 8 -3 24 3 34 12
22 20 27 41 8 29 -9 -5 -9 -3 1 9 7 9 17 14 23 11 14 -9 60 26 54 41 -3 8 0
17 6 21 7 4 8 3 4 -4 -10 -17 9 -15 23 1 6 8 7 18 3 23 -4 5 -3 6 2 2 5 -4 15
-3 23 3 16 14 18 33 1 23 -7 -4 -8 -3 -4 5 4 6 12 9 17 5 13 -7 41 15 33 27
-3 5 0 8 8 7 7 -2 13 5 13 14 0 9 4 20 9 25 5 4 6 3 2 -4 -13 -24 12 -13 33
13 23 30 28 49 9 38 -10 -6 -9 -3 0 8 8 9 19 15 26 12 15 -6 48 29 44 48 -1 7
-1 13 2 14 26 4 51 28 47 44 -3 11 2 25 12 32 14 12 15 11 2 -4 -7 -10 -11
-18 -9 -18 7 0 105 123 108 135 2 6 10 15 18 21 9 6 13 18 9 27 -3 9 -1 19 5
23 7 5 8 2 3 -6 -6 -9 -4 -11 4 -6 7 5 10 14 7 22 -3 8 0 11 9 7 15 -5 40 41
30 57 -3 5 0 12 6 16 8 5 9 3 4 -6 -6 -9 -4 -11 4 -5 7 4 11 16 8 26 -3 10 0
22 5 26 7 4 8 1 3 -7 -5 -8 -3 -11 4 -9 7 3 12 8 11 12 0 4 6 15 15 24 9 8 14
22 11 30 -4 9 -2 11 6 7 8 -5 9 -2 5 10 -4 10 -3 15 3 11 5 -3 12 6 16 20 3
14 10 25 14 25 13 0 33 58 24 71 -5 8 -3 9 6 4 10 -6 12 -4 7 9 -4 10 -3 15 3
11 6 -3 10 1 10 9 0 9 5 16 12 16 6 0 9 3 5 6 -3 4 1 13 9 22 9 8 13 23 11 34
-3 11 -1 16 6 11 7 -4 8 0 4 11 -4 9 -3 15 2 12 5 -3 12 6 16 21 3 16 11 31
17 34 6 4 11 20 12 37 0 17 4 28 7 26 10 -6 21 45 13 58 -4 7 -3 8 4 4 7 -4
12 -1 12 8 0 9 4 16 10 16 5 0 7 7 3 16 -3 9 0 20 7 24 8 5 14 24 14 43 1 19
5 33 10 30 5 -3 7 8 4 25 -3 19 0 29 5 25 6 -4 8 3 5 15 -4 12 -2 20 3 16 5
-3 9 6 9 20 0 14 5 26 10 26 6 0 10 10 9 23 0 12 -3 16 -6 10 -2 -7 -11 -13
-19 -13 -9 0 -13 -4 -10 -8 3 -5 -9 -6 -26 -4 -17 3 -28 1 -25 -4 3 -5 -18 -7
-45 -5 -29 2 -48 -1 -45 -6 4 -6 -20 -6 -61 0 -37 5 -83 7 -104 5 -20 -2 -34
1 -31 5 3 5 -13 8 -35 5 -22 -2 -38 0 -36 4 3 5 -4 8 -15 8 -10 0 -21 5 -23
12 -2 6 -20 12 -40 12 -20 1 -34 4 -32 8 7 11 -43 21 -58 12 -7 -4 -10 -4 -6
0 8 10 -14 36 -24 29 -5 -2 -8 0 -8 5 0 5 -9 12 -20 15 -18 5 -19 3 -4 -24 16
-31 29 -37 38 -16 3 6 4 3 1 -9 -7 -26 4 -56 16 -48 5 3 6 -3 2 -12 -4 -11 -3
-15 4 -11 7 5 9 0 6 -13 -3 -12 1 -22 11 -26 9 -3 16 -14 16 -24 0 -19 16 -34
35 -35 6 -1 9 -7 7 -14 -4 -19 39 -63 56 -56 7 2 10 0 7 -5 -7 -12 40 -24 56
-14 8 4 9 3 5 -4 -5 -8 2 -12 19 -12 15 0 24 4 20 10 -4 6 1 7 11 3 12 -5 15
-3 9 6 -6 11 -3 11 16 0 l24 -12 -23 -10 c-12 -6 -22 -14 -22 -19 0 -11 -58
-10 -65 2 -3 6 -11 10 -17 10 -6 0 1 -9 16 -21 15 -11 33 -18 42 -15 10 4 13
2 8 -6 -5 -7 0 -9 14 -6 12 4 20 2 16 -3 -3 -5 4 -9 15 -9 12 0 21 -4 21 -10
0 -13 57 -13 62 -1 2 5 16 13 32 17 22 5 28 4 24 -7 -3 -8 -14 -19 -26 -25
-12 -6 -20 -13 -18 -15 2 -2 -26 -4 -64 -4 -37 0 -66 3 -63 8 2 4 -3 7 -11 7
-9 0 -16 4 -16 10 0 5 -7 7 -15 4 -8 -4 -15 -1 -15 5 0 7 -8 11 -17 9 -10 -2
-18 3 -18 12 0 9 -9 15 -22 14 -11 0 -19 5 -17 11 6 14 -39 57 -57 53 -7 -2
-13 6 -14 17 0 11 -6 19 -13 17 -8 -1 -11 2 -7 8 3 5 1 10 -5 10 -6 0 -9 3 -7
8 3 4 -6 21 -20 37 -14 17 -22 23 -17 15 4 -8 3 -12 -1 -8 -5 5 -10 20 -11 35
-2 15 -8 29 -14 31 -5 2 -7 8 -4 14 3 5 -2 8 -12 6 -12 -2 -18 2 -16 11 4 20
-8 52 -19 46 -5 -3 -7 0 -4 7 2 7 -8 27 -23 43 -15 17 -22 24 -17 15 9 -13 8
-13 -8 -1 -9 8 -15 16 -13 19 10 10 -16 43 -29 38 -8 -3 -17 0 -21 6 -5 7 -2
8 6 3 9 -6 11 -4 6 4 -5 7 -15 10 -23 7 -8 -3 -12 -2 -9 3 7 11 -30 44 -42 37
-5 -3 -16 2 -23 12 -13 16 -13 16 6 2 19 -14 19 -14 6 3 -8 10 -22 16 -33 14
-10 -3 -21 0 -25 5 -3 7 -1 8 5 4 23 -14 11 13 -14 33 -30 23 -49 28 -38 9 6
-10 3 -9 -8 0 -9 8 -15 19 -12 26 6 17 -32 50 -47 40 -8 -4 -10 -3 -5 4 7 12
-83 14 -227 5z m983 -527 c0 0 4 -16 9 -34 9 -30 8 -31 -10 -21 -13 6 -18 17
-15 26 5 12 0 14 -22 11 -20 -3 -28 0 -28 12 0 12 8 15 33 12 18 -2 33 -5 33
-6z"/>
<path d="M6785 3489 c22 -4 55 -8 73 -8 17 -1 32 -5 32 -11 0 -6 38 -10 95
-10 81 0 95 2 95 16 0 12 -7 15 -29 12 -17 -2 -28 -1 -25 4 3 4 -59 7 -138 7
-103 -1 -132 -4 -103 -10z"/>
<path d="M4548 3407 c-7 -7 -31 -20 -53 -29 -22 -8 -51 -31 -65 -49 -19 -27
-20 -30 -4 -16 11 9 26 17 32 17 6 0 15 6 19 14 4 7 22 20 39 29 17 9 36 23
43 31 16 19 8 21 -11 3z"/>
<path d="M1300 3382 c-6 -2 -7 -9 -4 -14 4 -7 2 -8 -4 -4 -16 10 -63 -4 -55
-17 3 -6 1 -7 -6 -3 -6 4 -18 2 -26 -4 -8 -6 -20 -8 -26 -4 -9 5 -10 2 -6 -10
4 -10 3 -15 -3 -11 -13 8 -72 -4 -66 -13 2 -4 -13 -6 -35 -4 -37 4 -39 2 -39
-23 0 -17 4 -24 12 -19 7 5 8 3 4 -5 -9 -15 14 -141 26 -141 4 0 8 -12 8 -26
0 -14 4 -23 9 -20 5 4 7 -3 4 -13 -4 -17 -2 -19 23 -12 16 5 28 14 26 20 -1 7
2 9 8 6 10 -6 90 41 90 52 0 2 -5 1 -12 -3 -7 -4 -8 -3 -4 4 4 6 13 9 20 6 14
-5 36 16 40 38 3 23 16 37 30 32 15 -6 40 21 32 35 -4 5 -1 13 5 17 8 5 9 3 4
-6 -6 -9 -4 -11 4 -6 7 5 10 15 7 23 -3 8 -2 12 2 9 13 -8 33 10 35 32 0 11 5
18 11 15 5 -4 7 1 3 11 -5 11 -3 15 5 10 7 -5 9 0 6 14 -5 16 -2 19 11 15 11
-4 13 -3 6 5 -9 10 -124 21 -145 14z"/>
<path d="M1486 3345 c-9 -13 -16 -28 -16 -34 0 -5 -7 -12 -16 -15 -10 -4 -14
-14 -11 -26 3 -11 0 -23 -5 -27 -7 -4 -8 -1 -3 7 6 9 4 11 -4 6 -7 -5 -10 -15
-7 -23 3 -8 2 -12 -2 -9 -13 8 -31 -8 -35 -29 -4 -27 -17 -46 -26 -40 -8 4
-56 -41 -56 -53 0 -4 -4 -6 -8 -4 -16 5 -48 -20 -43 -33 3 -9 0 -12 -8 -9 -8
3 -17 0 -22 -7 -5 -8 -3 -10 6 -4 9 5 11 4 6 -4 -4 -6 -12 -9 -17 -5 -12 7
-69 -15 -69 -26 0 -4 -11 -11 -24 -14 -23 -6 -23 -8 -14 -46 6 -22 15 -40 20
-40 6 0 8 -9 5 -20 -3 -11 -1 -20 4 -20 5 0 9 -7 9 -16 0 -9 5 -12 12 -8 7 4
8 3 4 -5 -10 -15 2 -64 13 -57 4 3 6 -5 4 -18 -3 -12 2 -29 9 -37 8 -8 18 -27
22 -42 3 -15 11 -25 16 -22 6 4 7 -1 3 -11 -4 -11 -3 -15 4 -11 7 5 9 0 6 -11
-2 -11 2 -25 9 -33 8 -8 15 -17 16 -21 8 -27 15 -37 23 -32 5 3 6 -3 2 -12 -5
-13 -3 -15 7 -9 9 5 11 4 6 -4 -9 -13 11 -71 24 -71 4 0 11 -11 14 -25 4 -14
11 -23 16 -20 6 4 7 -1 3 -11 -4 -11 -3 -15 4 -11 7 5 9 0 6 -13 -3 -12 1 -22
11 -26 9 -3 13 -10 10 -15 -3 -5 -1 -9 4 -9 5 0 12 -9 15 -21 3 -12 10 -18 16
-14 7 4 8 0 4 -11 -5 -13 -3 -15 7 -9 7 5 11 4 8 -1 -10 -16 11 -56 27 -51 9
4 12 1 9 -7 -3 -8 0 -17 7 -22 8 -5 10 -3 4 6 -5 8 -4 11 3 6 6 -4 9 -13 5
-21 -5 -16 72 -125 88 -125 5 0 9 -6 9 -13 0 -8 10 -22 23 -33 l22 -19 -20 25
-20 25 22 -18 c12 -11 19 -25 16 -33 -7 -18 16 -46 33 -40 9 3 11 0 7 -11 -4
-11 -2 -14 5 -9 7 4 10 2 7 -7 -7 -16 29 -52 43 -43 5 3 16 -2 23 -11 10 -12
10 -14 2 -9 -20 11 -15 -8 8 -38 12 -15 27 -25 35 -22 7 3 11 0 8 -7 -6 -18
41 -61 57 -52 8 5 10 4 5 -4 -10 -15 13 -43 27 -34 5 3 7 1 4 -4 -9 -14 19
-37 32 -28 6 3 8 0 5 -9 -6 -16 39 -51 54 -42 6 3 16 -2 23 -11 10 -12 10 -14
2 -9 -20 12 -15 -9 7 -29 10 -9 26 -15 34 -12 16 6 40 -16 29 -26 -10 -11 19
-38 34 -33 8 4 11 1 8 -5 -4 -6 0 -9 11 -7 10 2 19 -3 20 -9 1 -7 2 -18 3 -24
0 -5 5 -8 10 -4 5 3 12 1 16 -5 4 -6 10 -8 15 -5 5 3 12 0 16 -6 4 -8 3 -9 -4
-5 -28 17 -8 -3 38 -38 28 -22 56 -36 65 -33 8 4 17 1 21 -5 5 -7 2 -8 -7 -3
-8 5 -2 -4 13 -19 17 -18 34 -26 43 -22 11 4 14 2 9 -6 -5 -8 -2 -9 9 -5 10 4
16 2 14 -6 -1 -7 8 -12 20 -11 13 0 21 -1 19 -4 -10 -10 34 -44 49 -38 11 4
14 2 9 -6 -5 -8 -2 -9 9 -5 9 3 19 1 23 -5 5 -7 2 -8 -7 -4 -8 4 -3 -1 11 -12
13 -11 28 -18 32 -16 4 3 8 0 8 -6 0 -7 7 -9 16 -6 10 4 13 2 8 -6 -5 -7 0 -9
14 -6 14 4 20 2 15 -5 -4 -7 0 -8 11 -4 10 4 15 3 11 -3 -3 -5 6 -12 20 -16
14 -3 25 -10 25 -14 0 -13 58 -33 71 -24 7 4 10 3 5 -4 -3 -6 6 -13 24 -17 16
-4 30 -11 30 -16 0 -6 4 -8 9 -5 5 4 11 2 13 -4 2 -6 17 -11 35 -13 17 -1 29
-6 26 -11 -3 -5 8 -7 25 -4 17 2 29 1 26 -4 -3 -4 8 -10 23 -14 15 -4 31 -12
35 -17 3 -6 22 -11 41 -11 19 -1 33 -5 29 -10 -3 -5 5 -7 16 -4 14 4 20 2 16
-4 -5 -7 2 -9 19 -6 15 3 24 1 21 -3 -3 -5 13 -12 36 -15 22 -4 40 -11 40 -16
0 -6 13 -8 29 -6 17 2 28 1 26 -3 -5 -7 14 -11 140 -29 44 -7 89 -16 101 -22
12 -5 55 -11 96 -11 42 -1 74 -5 71 -9 -2 -5 3 -8 11 -8 19 0 40 36 30 52 -5
7 -3 8 6 3 10 -6 12 -4 7 9 -4 10 -3 15 3 11 5 -3 12 6 16 20 3 14 11 25 16
25 6 0 7 7 4 16 -3 8 -2 12 3 9 12 -7 24 31 15 46 -4 8 -3 9 4 5 7 -4 14 4 18
21 4 15 13 34 21 41 7 7 16 25 19 39 7 27 -14 133 -26 133 -4 0 -10 18 -14 40
-3 23 -10 39 -14 36 -4 -2 -6 11 -4 31 3 20 1 33 -4 30 -5 -2 -10 23 -12 56
-1 34 -7 64 -13 68 -7 4 -10 23 -7 43 2 23 0 35 -6 33 -12 -5 -11 345 0 373 4
8 6 34 5 58 -2 27 2 42 9 42 8 0 11 14 8 39 -2 22 1 37 6 34 5 -3 7 8 4 25 -2
17 -1 29 3 26 10 -6 22 73 13 87 -4 8 -3 9 4 5 9 -5 12 15 12 73 0 43 4 81 10
83 5 2 10 37 12 79 2 42 6 75 11 72 10 -6 9 5 -5 44 -7 18 -16 33 -20 33 -4 0
-8 7 -8 16 0 8 -4 12 -10 9 -6 -4 -7 1 -3 11 4 11 2 15 -4 11 -6 -4 -8 3 -6
17 3 15 -2 31 -15 44 -11 11 -23 30 -27 41 -3 12 -11 19 -16 16 -5 -3 -6 2 -2
11 4 11 3 15 -4 11 -7 -5 -9 0 -6 12 3 11 -4 28 -16 40 -12 12 -21 25 -21 31
0 15 -71 91 -80 85 -4 -3 -13 2 -20 10 -7 8 -9 15 -4 15 4 0 -3 11 -16 25 -13
14 -31 24 -39 23 -9 -2 -15 3 -13 10 1 7 -5 15 -14 19 -9 3 -28 17 -42 30 -15
14 -34 22 -44 20 -11 -3 -15 -1 -11 6 4 6 0 8 -10 4 -11 -4 -14 -2 -10 9 3 10
0 12 -10 9 -8 -4 -17 1 -21 10 -4 10 -12 15 -22 11 -8 -3 -12 -2 -9 3 7 12
-31 24 -47 15 -7 -4 -10 -4 -6 1 24 26 -71 56 -188 58 -45 1 -80 5 -77 10 2 4
-5 7 -17 7 -12 0 -19 -4 -16 -9 4 -5 -4 -7 -16 -3 -13 3 -19 1 -15 -5 4 -7 0
-9 -11 -6 -26 6 -114 -73 -110 -101 2 -15 -2 -20 -14 -18 -18 3 -56 -44 -44
-55 9 -10 -14 -32 -28 -27 -14 6 -42 -23 -33 -33 12 -11 -13 -31 -32 -26 -10
3 -22 0 -25 -6 -4 -6 -18 -11 -32 -11 -13 0 -24 -4 -24 -9 0 -5 -10 -11 -22
-13 -19 -4 -23 0 -23 21 0 22 4 26 30 26 18 0 29 5 28 12 -2 7 3 10 11 7 18
-7 78 45 72 63 -3 8 -2 12 3 8 11 -6 53 44 46 55 -3 5 0 12 6 16 8 5 9 3 4 -6
-5 -9 -4 -11 4 -6 7 4 11 17 9 29 -2 15 2 21 11 19 7 -2 24 7 37 19 24 23 33
46 13 33 -8 -5 -8 -1 0 14 6 11 11 22 11 24 0 2 -77 3 -170 3 -130 0 -169 -3
-166 -12 3 -7 0 -15 -6 -19 -7 -4 -8 -3 -4 4 10 17 -9 15 -23 -1 -6 -8 -7 -18
-3 -22 4 -5 2 -5 -4 -2 -15 9 -38 -19 -31 -37 4 -10 1 -13 -8 -10 -16 7 -39
-32 -31 -52 4 -10 2 -12 -6 -8 -8 5 -9 2 -5 -10 4 -11 3 -15 -4 -11 -6 4 -13
-2 -16 -14 -3 -12 -10 -21 -15 -21 -5 0 -6 -5 -2 -11 3 -6 1 -15 -6 -19 -6 -4
-13 -19 -13 -33 -1 -14 -5 -23 -9 -21 -10 6 -20 -34 -12 -48 4 -7 4 -10 -1 -6
-12 11 -47 -34 -42 -54 3 -10 1 -16 -4 -12 -8 5 -11 -4 -14 -51 0 -13 -7 -19
-19 -17 -10 2 -15 -1 -12 -6 3 -6 1 -12 -4 -14 -6 -2 -12 -13 -13 -25 0 -12
-5 -19 -11 -16 -6 4 -6 -1 -2 -13 4 -10 4 -15 0 -12 -8 9 -50 -43 -46 -57 2
-5 1 -7 -3 -3 -8 8 -61 -52 -57 -65 1 -5 -2 -6 -7 -3 -5 3 -20 -3 -33 -14 -14
-11 -29 -16 -33 -12 -4 4 -5 -2 -3 -12 2 -13 -3 -19 -18 -21 -15 -1 -20 4 -19
19 1 13 8 20 17 18 8 -1 23 7 33 18 10 11 15 20 10 20 -4 0 -2 7 5 15 7 8 16
13 20 10 11 -7 51 40 48 56 -2 7 4 13 12 14 9 0 15 9 14 22 0 13 4 19 12 16
15 -6 38 33 30 52 -3 8 0 17 6 21 7 5 8 2 3 -6 -6 -9 -4 -11 4 -6 7 5 10 15 7
23 -3 8 -1 11 4 8 6 -3 10 1 10 9 0 9 4 16 9 16 13 0 34 58 27 75 -4 11 -2 14
6 9 8 -5 9 -2 5 10 -4 10 -3 15 3 11 6 -3 10 1 10 9 0 9 5 16 12 16 6 0 9 3 5
6 -3 4 1 13 9 22 9 8 13 23 11 34 -3 11 -1 16 6 11 6 -4 8 2 5 15 -4 12 -2 20
3 16 5 -3 9 2 9 10 0 9 4 16 10 16 5 0 15 10 21 22 8 16 -4 9 -39 -21 -29 -23
-50 -47 -46 -52 3 -5 -3 -6 -12 -2 -13 5 -15 3 -9 -7 5 -7 4 -11 -1 -8 -17 10
-55 -11 -52 -29 2 -11 -2 -17 -11 -15 -22 5 -52 -9 -45 -20 4 -6 2 -8 -4 -4
-6 3 -17 -1 -25 -9 -9 -8 -21 -15 -27 -15 -6 0 -8 -4 -5 -10 4 -6 -1 -7 -11
-3 -13 5 -15 3 -9 -7 5 -9 4 -11 -4 -6 -14 9 -73 -3 -67 -13 3 -4 -8 -5 -25
-3 -18 3 -29 0 -29 -8 0 -8 -13 -11 -40 -8 -25 2 -39 0 -36 -7 2 -6 -12 -10
-34 -10 -23 0 -36 4 -33 11 2 7 -7 9 -26 6 -21 -3 -36 2 -52 17 -13 12 -29 19
-36 17 -6 -3 -10 0 -8 7 2 7 6 24 9 40 4 15 13 27 21 27 8 0 20 9 27 20 8 12
24 20 40 20 16 0 28 -1 28 -3 0 -1 4 -16 9 -33 7 -26 6 -30 -11 -31 -13 -1
-18 3 -14 13 7 19 -28 19 -44 -1 -7 -8 -9 -22 -6 -31 5 -14 17 -16 71 -11 36
2 72 10 80 17 8 6 20 8 26 4 9 -5 10 -2 6 9 -4 12 -2 14 10 10 12 -5 14 -3 8
7 -5 9 -4 11 4 6 13 -8 53 2 47 12 -2 4 8 8 22 9 15 0 28 6 30 12 2 6 9 8 15
4 7 -4 8 0 4 11 -4 11 -3 15 4 10 15 -9 60 16 52 29 -4 6 -1 7 6 3 14 -9 53
22 45 35 -3 5 1 6 9 3 8 -3 18 0 23 7 5 8 3 10 -6 4 -8 -5 -11 -4 -6 3 4 6 13
9 21 6 8 -4 18 1 21 10 3 9 11 13 17 9 6 -4 8 0 4 9 -7 19 11 38 30 31 7 -3
23 3 33 12 21 19 27 41 8 29 -7 -4 -8 -3 -4 4 4 6 12 9 19 6 7 -2 23 6 36 20
l22 24 -233 7 c-128 3 -310 5 -405 3 -94 -2 -169 0 -166 5 2 4 -20 7 -50 7
-47 0 -57 -3 -71 -25z m2215 -372 c13 -16 12 -17 -3 -4 -17 13 -22 21 -14 21
2 0 10 -8 17 -17z"/>
<path d="M2870 3310 c0 -13 11 -13 30 0 12 8 11 10 -7 10 -13 0 -23 -4 -23
-10z"/>
<path d="M1870 1349 c0 -5 4 -8 9 -4 5 3 12 1 16 -4 3 -6 -5 -8 -18 -5 -26 4
-64 -27 -53 -45 4 -5 1 -13 -5 -17 -8 -4 -9 -3 -5 4 4 8 2 10 -8 6 -12 -5 -10
-11 12 -35 14 -16 33 -28 41 -27 23 4 41 -10 35 -27 -6 -14 33 -37 47 -29 4 2
13 -4 20 -14 13 -16 12 -16 -6 -3 -11 8 -2 -2 20 -22 22 -20 46 -34 52 -32 7
2 12 -1 10 -8 -1 -7 8 -12 19 -11 13 0 20 -5 17 -11 -5 -15 44 -48 59 -39 7 5
8 3 3 -6 -6 -10 -4 -12 11 -6 10 4 15 4 11 0 -10 -10 35 -46 50 -39 9 3 11 0
7 -7 -5 -8 -2 -9 9 -5 10 4 16 2 14 -6 -1 -7 8 -12 19 -11 16 0 20 -4 16 -14
-3 -9 -1 -13 5 -9 6 4 14 0 17 -9 4 -10 14 -14 26 -11 13 3 18 1 13 -6 -4 -6
0 -8 10 -4 9 3 19 1 23 -5 5 -7 2 -8 -6 -3 -9 5 -11 4 -6 -3 4 -7 14 -12 22
-12 8 0 14 -4 14 -9 0 -13 57 -34 71 -25 8 5 9 3 4 -6 -6 -10 -4 -12 9 -7 10
4 15 3 11 -3 -3 -5 6 -12 20 -16 14 -3 25 -11 25 -16 0 -6 7 -7 16 -4 8 3 12
2 9 -3 -7 -12 31 -24 46 -15 8 5 9 3 4 -6 -6 -10 -4 -12 9 -7 10 4 15 3 11 -3
-3 -6 1 -10 9 -10 9 0 16 -3 16 -8 0 -12 60 -34 80 -29 11 3 18 1 15 -4 -7
-11 40 -23 54 -14 7 4 8 0 4 -11 -4 -12 -3 -15 6 -10 6 4 18 2 26 -4 8 -6 20
-8 26 -4 7 4 9 3 6 -3 -8 -13 39 -27 55 -17 6 4 8 3 4 -4 -7 -12 48 -27 64
-17 6 3 7 0 4 -10 -5 -11 -2 -14 10 -9 9 3 23 1 31 -6 8 -7 22 -10 30 -6 10 4
14 2 9 -6 -5 -7 1 -9 19 -6 15 3 24 2 22 -3 -6 -9 71 -23 85 -14 5 3 7 0 4 -9
-4 -11 0 -13 16 -9 12 3 25 1 29 -6 4 -6 35 -13 68 -14 34 -1 58 -6 56 -11 -3
-4 13 -7 35 -4 22 2 38 -1 35 -6 -3 -4 10 -7 30 -4 20 2 33 0 31 -4 -3 -4 11
-8 30 -8 20 0 36 -3 36 -8 0 -4 19 -6 41 -4 28 3 44 0 50 -9 12 -21 736 -21
748 0 6 9 22 12 50 9 26 -2 40 0 37 7 -2 6 11 9 37 6 27 -2 37 0 33 8 -5 7 -1
9 9 5 19 -8 127 5 121 14 -2 4 23 8 57 9 33 1 64 8 68 14 4 7 17 9 29 6 16 -4
20 -2 16 9 -3 9 -1 12 4 9 14 -9 91 5 85 14 -2 5 7 6 22 3 18 -3 24 -1 19 6
-5 8 -1 10 9 6 8 -4 22 -1 30 6 8 6 20 8 26 4 9 -5 10 -2 6 10 -4 11 -3 15 4
11 17 -11 81 4 73 17 -4 7 -3 8 4 4 16 -10 63 4 55 17 -3 6 -1 7 6 3 6 -4 18
-2 26 4 8 6 20 8 26 4 9 -5 10 -2 6 10 -4 11 -3 15 4 11 14 -9 61 3 54 14 -3
5 4 7 15 4 20 -5 80 17 80 29 0 5 7 8 16 8 8 0 12 4 9 10 -4 6 1 7 11 3 13 -5
15 -3 9 7 -5 9 -4 11 4 6 15 -9 53 3 46 15 -3 5 1 6 9 3 9 -3 16 -2 16 4 0 5
11 13 25 16 14 4 23 11 20 16 -4 6 1 7 11 3 13 -5 15 -3 9 7 -5 9 -4 11 4 6
14 -9 71 12 71 25 0 5 6 9 14 9 8 0 18 5 22 12 5 7 3 8 -6 3 -8 -5 -11 -4 -7
2 4 6 17 8 31 6 16 -3 28 2 38 16 8 11 18 18 23 13 4 -4 6 0 3 9 -4 11 0 15
16 15 11 -1 20 4 19 11 -2 8 4 10 14 6 11 -4 14 -3 9 5 -4 7 -2 10 7 7 7 -3
26 6 43 21 16 14 23 23 15 19 -9 -5 -12 -4 -7 3 4 6 13 9 21 6 18 -7 67 26 62
41 -3 6 4 11 17 11 11 -1 20 4 19 11 -2 7 3 10 10 8 6 -2 30 12 52 32 22 20
31 30 20 22 -18 -13 -19 -13 -6 3 7 10 16 16 20 14 14 -8 53 15 48 28 -6 15
16 40 26 30 3 -3 15 0 27 6 21 11 21 12 4 31 -10 11 -23 18 -30 15 -7 -3 -18
3 -26 12 -9 11 -10 14 0 8 16 -10 15 6 -2 30 -14 18 -15 18 -53 -13 -21 -17
-37 -36 -36 -42 2 -6 -3 -8 -10 -6 -6 2 -30 -12 -52 -32 -22 -20 -31 -30 -20
-22 18 13 19 12 7 -3 -8 -9 -20 -14 -28 -11 -8 3 -26 -7 -42 -23 -15 -15 -20
-24 -12 -19 9 5 12 4 7 -1 -4 -4 -18 -9 -30 -9 -13 0 -21 -6 -19 -13 1 -8 -2
-11 -8 -7 -12 8 -72 -40 -62 -49 3 -4 -2 -4 -12 0 -15 6 -17 4 -11 -6 5 -7 4
-11 -1 -8 -16 10 -56 -11 -51 -27 4 -10 1 -12 -10 -8 -10 4 -14 2 -10 -4 5 -7
0 -9 -12 -6 -11 3 -28 -4 -40 -16 -12 -12 -23 -21 -26 -21 -17 -1 -34 -13 -29
-21 3 -5 -3 -6 -12 -2 -13 5 -15 3 -9 -7 5 -9 4 -11 -4 -6 -14 9 -71 -12 -71
-25 0 -5 -7 -9 -16 -9 -8 0 -12 -4 -9 -10 4 -6 -1 -7 -11 -3 -13 5 -15 3 -9
-7 5 -9 4 -11 -4 -6 -16 10 -53 -3 -45 -16 4 -7 2 -8 -4 -4 -14 8 -84 -28 -74
-39 4 -5 1 -5 -6 -1 -14 8 -54 -2 -48 -12 2 -4 -9 -8 -26 -8 -17 -1 -34 -7
-38 -14 -4 -7 -13 -9 -21 -5 -8 6 -11 4 -7 -7 5 -11 0 -14 -19 -10 -17 3 -24
1 -19 -6 4 -6 -2 -8 -16 -4 -13 3 -19 1 -15 -5 4 -6 -4 -8 -20 -5 -19 4 -24 2
-18 -8 5 -8 4 -11 -2 -7 -19 12 -75 -4 -69 -20 3 -8 1 -11 -4 -8 -13 8 -81 -5
-75 -15 2 -4 -7 -5 -22 -2 -14 3 -24 1 -21 -4 3 -5 -14 -10 -39 -10 -25 -1
-49 -7 -53 -14 -5 -8 -19 -11 -35 -8 -18 4 -25 2 -22 -6 3 -8 -5 -11 -25 -8
-18 3 -28 1 -25 -5 3 -5 -10 -7 -30 -5 -20 3 -33 0 -30 -4 3 -5 -13 -8 -35 -6
-22 3 -38 0 -35 -4 2 -5 -36 -10 -87 -12 -50 -1 -92 -7 -94 -12 -2 -6 -35 -10
-73 -10 -39 0 -68 -3 -66 -8 8 -12 -561 4 -576 17 -8 6 -52 12 -99 13 -47 2
-83 7 -81 12 3 4 -13 7 -35 4 -22 -2 -38 1 -35 6 3 4 -10 7 -30 4 -20 -2 -33
0 -30 5 3 6 -7 8 -25 5 -20 -3 -28 0 -25 8 3 8 -4 10 -22 6 -16 -3 -30 0 -35
8 -4 7 -28 13 -53 14 -25 0 -42 5 -39 10 3 5 -7 7 -21 4 -15 -3 -24 -2 -22 2
6 10 -62 23 -75 15 -5 -3 -7 0 -4 8 6 16 -50 32 -69 20 -6 -4 -7 -1 -2 7 6 10
1 12 -18 8 -16 -3 -24 -1 -20 5 4 6 -2 8 -15 5 -14 -4 -20 -2 -16 4 5 7 -2 9
-19 6 -19 -4 -24 -1 -19 10 4 11 1 13 -7 7 -8 -4 -16 -2 -21 5 -4 6 -19 13
-33 13 -14 1 -23 5 -21 8 6 10 -45 21 -59 13 -7 -4 -9 -4 -5 1 10 11 -60 47
-74 39 -6 -4 -8 -3 -4 4 8 13 -29 26 -45 16 -8 -4 -9 -3 -5 4 4 7 -3 14 -19
18 -14 3 -25 10 -25 14 0 13 -58 33 -71 24 -8 -5 -9 -3 -4 6 6 10 4 12 -9 7
-9 -4 -15 -3 -12 2 5 8 -12 20 -29 21 -3 0 -14 9 -26 21 -12 12 -29 19 -40 16
-12 -3 -17 -1 -12 6 4 6 0 8 -10 4 -11 -4 -14 -2 -10 8 5 16 -35 37 -51 27 -5
-3 -6 1 -1 8 6 10 4 12 -11 6 -10 -4 -15 -4 -11 0 4 4 -3 14 -16 23 -12 9 -23
13 -24 11 -1 -3 -8 4 -16 14 -8 11 -21 17 -30 13 -9 -3 -21 2 -29 11 -12 16
-11 16 7 2 11 -8 5 1 -12 19 -19 19 -39 31 -47 28 -8 -3 -20 2 -28 11 -12 16
-11 16 7 2 19 -14 19 -14 6 3 -7 9 -17 17 -21 17 -4 0 -23 14 -41 30 -17 17
-38 29 -45 26 -8 -3 -11 0 -8 8 3 7 -12 25 -34 39 -42 29 -52 33 -52 16z"/>
</g>
</svg>
